%TF.GenerationSoftware,KiCad,Pcbnew,(6.0.7)*%
%TF.CreationDate,2022-10-30T17:48:50+07:00*%
%TF.ProjectId,dd,64642e6b-6963-4616-945f-706362585858,rev?*%
%TF.SameCoordinates,Original*%
%TF.FileFunction,Copper,L1,Top*%
%TF.FilePolarity,Positive*%
%FSLAX46Y46*%
G04 Gerber Fmt 4.6, Leading zero omitted, Abs format (unit mm)*
G04 Created by KiCad (PCBNEW (6.0.7)) date 2022-10-30 17:48:50*
%MOMM*%
%LPD*%
G01*
G04 APERTURE LIST*
G04 Aperture macros list*
%AMRoundRect*
0 Rectangle with rounded corners*
0 $1 Rounding radius*
0 $2 $3 $4 $5 $6 $7 $8 $9 X,Y pos of 4 corners*
0 Add a 4 corners polygon primitive as box body*
4,1,4,$2,$3,$4,$5,$6,$7,$8,$9,$2,$3,0*
0 Add four circle primitives for the rounded corners*
1,1,$1+$1,$2,$3*
1,1,$1+$1,$4,$5*
1,1,$1+$1,$6,$7*
1,1,$1+$1,$8,$9*
0 Add four rect primitives between the rounded corners*
20,1,$1+$1,$2,$3,$4,$5,0*
20,1,$1+$1,$4,$5,$6,$7,0*
20,1,$1+$1,$6,$7,$8,$9,0*
20,1,$1+$1,$8,$9,$2,$3,0*%
G04 Aperture macros list end*
%TA.AperFunction,SMDPad,CuDef*%
%ADD10RoundRect,0.250000X-0.262500X-0.450000X0.262500X-0.450000X0.262500X0.450000X-0.262500X0.450000X0*%
%TD*%
%TA.AperFunction,ComponentPad*%
%ADD11R,1.700000X1.700000*%
%TD*%
%TA.AperFunction,ComponentPad*%
%ADD12O,1.700000X1.700000*%
%TD*%
%TA.AperFunction,SMDPad,CuDef*%
%ADD13RoundRect,0.250000X-0.325000X-0.450000X0.325000X-0.450000X0.325000X0.450000X-0.325000X0.450000X0*%
%TD*%
%TA.AperFunction,ViaPad*%
%ADD14C,0.800000*%
%TD*%
%TA.AperFunction,Conductor*%
%ADD15C,0.300000*%
%TD*%
%TA.AperFunction,Conductor*%
%ADD16C,0.350000*%
%TD*%
G04 APERTURE END LIST*
D10*
%TO.P,R4,1*%
%TO.N,/RIGHT*%
X123187500Y-68700000D03*
%TO.P,R4,2*%
%TO.N,Net-(D4-Pad1)*%
X125012500Y-68700000D03*
%TD*%
%TO.P,R3,1*%
%TO.N,/LEFT*%
X147137500Y-68450000D03*
%TO.P,R3,2*%
%TO.N,Net-(D3-Pad1)*%
X148962500Y-68450000D03*
%TD*%
%TO.P,R2,1*%
%TO.N,/DOWN*%
X132155000Y-89600000D03*
%TO.P,R2,2*%
%TO.N,Net-(D2-Pad1)*%
X133980000Y-89600000D03*
%TD*%
%TO.P,R1,1*%
%TO.N,/UP*%
X130437500Y-50450000D03*
%TO.P,R1,2*%
%TO.N,Net-(D1-Pad1)*%
X132262500Y-50450000D03*
%TD*%
D11*
%TO.P,J1,1,Pin_1*%
%TO.N,unconnected-(J1-Pad1)*%
X143125000Y-58225000D03*
D12*
%TO.P,J1,2,Pin_2*%
%TO.N,/GND*%
X140585000Y-58225000D03*
%TO.P,J1,3,Pin_3*%
%TO.N,/VCC*%
X138045000Y-58225000D03*
%TO.P,J1,4,Pin_4*%
%TO.N,/SDA*%
X135505000Y-58225000D03*
%TO.P,J1,5,Pin_5*%
%TO.N,/SCL*%
X132965000Y-58225000D03*
%TO.P,J1,6,Pin_6*%
%TO.N,/INT*%
X130425000Y-58225000D03*
%TD*%
D11*
%TO.P,J2,1,Pin_1*%
%TO.N,unconnected-(J2-Pad1)*%
X86100000Y-54120000D03*
D12*
%TO.P,J2,2,Pin_2*%
%TO.N,unconnected-(J2-Pad2)*%
X86100000Y-56660000D03*
%TO.P,J2,3,Pin_3*%
%TO.N,unconnected-(J2-Pad3)*%
X86100000Y-59200000D03*
%TO.P,J2,4,Pin_4*%
%TO.N,unconnected-(J2-Pad4)*%
X86100000Y-61740000D03*
%TO.P,J2,5,Pin_5*%
%TO.N,unconnected-(J2-Pad5)*%
X86100000Y-64280000D03*
%TO.P,J2,6,Pin_6*%
%TO.N,unconnected-(J2-Pad6)*%
X86100000Y-66820000D03*
%TO.P,J2,7,Pin_7*%
%TO.N,unconnected-(J2-Pad7)*%
X86100000Y-69360000D03*
%TO.P,J2,8,Pin_8*%
%TO.N,unconnected-(J2-Pad8)*%
X86100000Y-71900000D03*
%TO.P,J2,9,Pin_9*%
%TO.N,unconnected-(J2-Pad9)*%
X86100000Y-74440000D03*
%TO.P,J2,10,Pin_10*%
%TO.N,unconnected-(J2-Pad10)*%
X86100000Y-76980000D03*
%TO.P,J2,11,Pin_11*%
%TO.N,unconnected-(J2-Pad11)*%
X86100000Y-79520000D03*
%TO.P,J2,12,Pin_12*%
%TO.N,unconnected-(J2-Pad12)*%
X86100000Y-82060000D03*
%TO.P,J2,13,Pin_13*%
%TO.N,unconnected-(J2-Pad13)*%
X86100000Y-84600000D03*
%TO.P,J2,14,Pin_14*%
%TO.N,unconnected-(J2-Pad14)*%
X86100000Y-87140000D03*
%TO.P,J2,15,Pin_15*%
%TO.N,unconnected-(J2-Pad15)*%
X86100000Y-89680000D03*
%TD*%
D13*
%TO.P,D2,1,K*%
%TO.N,Net-(D2-Pad1)*%
X137125000Y-89500000D03*
%TO.P,D2,2,A*%
%TO.N,/GND*%
X139175000Y-89500000D03*
%TD*%
%TO.P,D1,1,K*%
%TO.N,Net-(D1-Pad1)*%
X136575000Y-50100000D03*
%TO.P,D1,2,A*%
%TO.N,/GND*%
X138625000Y-50100000D03*
%TD*%
D11*
%TO.P,J3,1,Pin_1*%
%TO.N,/UP*%
X108950000Y-54100000D03*
D12*
%TO.P,J3,2,Pin_2*%
%TO.N,/SCL*%
X108950000Y-56640000D03*
%TO.P,J3,3,Pin_3*%
%TO.N,/SDA*%
X108950000Y-59180000D03*
%TO.P,J3,4,Pin_4*%
%TO.N,unconnected-(J3-Pad4)*%
X108950000Y-61720000D03*
%TO.P,J3,5,Pin_5*%
%TO.N,unconnected-(J3-Pad5)*%
X108950000Y-64260000D03*
%TO.P,J3,6,Pin_6*%
%TO.N,unconnected-(J3-Pad6)*%
X108950000Y-66800000D03*
%TO.P,J3,7,Pin_7*%
%TO.N,/GND*%
X108950000Y-69340000D03*
%TO.P,J3,8,Pin_8*%
%TO.N,/DOWN*%
X108950000Y-71880000D03*
%TO.P,J3,9,Pin_9*%
%TO.N,/INT*%
X108950000Y-74420000D03*
%TO.P,J3,10,Pin_10*%
%TO.N,/LEFT*%
X108950000Y-76960000D03*
%TO.P,J3,11,Pin_11*%
%TO.N,/RIGHT*%
X108950000Y-79500000D03*
%TO.P,J3,12,Pin_12*%
%TO.N,unconnected-(J3-Pad12)*%
X108950000Y-82040000D03*
%TO.P,J3,13,Pin_13*%
%TO.N,unconnected-(J3-Pad13)*%
X108950000Y-84580000D03*
%TO.P,J3,14,Pin_14*%
%TO.N,/GND*%
X108950000Y-87120000D03*
%TO.P,J3,15,Pin_15*%
%TO.N,/VCC*%
X108950000Y-89660000D03*
%TD*%
D13*
%TO.P,D3,1,K*%
%TO.N,Net-(D3-Pad1)*%
X146875000Y-72300000D03*
%TO.P,D3,2,A*%
%TO.N,/GND*%
X148925000Y-72300000D03*
%TD*%
%TO.P,D4,1,K*%
%TO.N,Net-(D4-Pad1)*%
X123925000Y-72650000D03*
%TO.P,D4,2,A*%
%TO.N,/GND*%
X125975000Y-72650000D03*
%TD*%
D14*
%TO.N,/INT*%
X124250000Y-57300000D03*
X113150000Y-74900000D03*
%TO.N,/LEFT*%
X139350000Y-81900000D03*
X115100000Y-76350000D03*
%TO.N,/DOWN*%
X117350000Y-77350000D03*
X127275000Y-90650000D03*
%TO.N,/VCC*%
X133800000Y-76600000D03*
X133800000Y-67100000D03*
%TO.N,/GND*%
X101500000Y-66700000D03*
X143150000Y-46950000D03*
X83500000Y-62900000D03*
X130050000Y-92600000D03*
X149500000Y-48850000D03*
X150100000Y-57200000D03*
X94350000Y-79550000D03*
X145650000Y-81450000D03*
X85300000Y-47650000D03*
X150000000Y-62050000D03*
X151100000Y-68300000D03*
X102500000Y-92400000D03*
X149550000Y-91300000D03*
X123650000Y-47050000D03*
X96100000Y-92600000D03*
X100500000Y-46800000D03*
X90500000Y-73500000D03*
X134500000Y-46950000D03*
X87150000Y-93150000D03*
X116350000Y-92850000D03*
X118100000Y-48000000D03*
X91550000Y-47750000D03*
X135700000Y-86750000D03*
X114700000Y-64850000D03*
X83150000Y-78950000D03*
X149250000Y-79450000D03*
X113450000Y-46850000D03*
X143450000Y-53450000D03*
X138050000Y-93950000D03*
X150450000Y-82800000D03*
X146900000Y-88200000D03*
X141150000Y-68500000D03*
X94500000Y-57500000D03*
X83150000Y-53700000D03*
%TD*%
D15*
%TO.N,Net-(D1-Pad1)*%
X132262500Y-50450000D02*
X136225000Y-50450000D01*
%TO.N,/UP*%
X123350000Y-50450000D02*
X130437500Y-50450000D01*
X119700000Y-54100000D02*
X123350000Y-50450000D01*
X108950000Y-54100000D02*
X119700000Y-54100000D01*
%TO.N,/LEFT*%
X139350000Y-74650000D02*
X145550000Y-68450000D01*
X145550000Y-68450000D02*
X147137500Y-68450000D01*
X139350000Y-81900000D02*
X139350000Y-74650000D01*
%TO.N,Net-(D3-Pad1)*%
X148962500Y-68687500D02*
X148962500Y-68450000D01*
X146875000Y-70775000D02*
X148962500Y-68687500D01*
X146875000Y-72300000D02*
X146875000Y-70775000D01*
%TO.N,Net-(D2-Pad1)*%
X133980000Y-89600000D02*
X137025000Y-89600000D01*
%TO.N,/DOWN*%
X128325000Y-89600000D02*
X132155000Y-89600000D01*
X127275000Y-90650000D02*
X128325000Y-89600000D01*
%TO.N,/RIGHT*%
X118450000Y-79100000D02*
X114400000Y-79100000D01*
X119600000Y-77950000D02*
X118450000Y-79100000D01*
X109950000Y-80500000D02*
X108950000Y-79500000D01*
X119600000Y-72675000D02*
X119600000Y-77950000D01*
X123187500Y-68700000D02*
X123187500Y-69087500D01*
X123187500Y-69087500D02*
X119600000Y-72675000D01*
X114400000Y-79100000D02*
X113000000Y-80500000D01*
X113000000Y-80500000D02*
X109950000Y-80500000D01*
%TO.N,Net-(D4-Pad1)*%
X123590000Y-70122500D02*
X123590000Y-72315000D01*
X125012500Y-68700000D02*
X123590000Y-70122500D01*
%TO.N,/LEFT*%
X113550000Y-76350000D02*
X115100000Y-76350000D01*
X112150000Y-77750000D02*
X113550000Y-76350000D01*
X108950000Y-76960000D02*
X109740000Y-77750000D01*
X109740000Y-77750000D02*
X112150000Y-77750000D01*
%TO.N,/INT*%
X111650000Y-75100000D02*
X112950000Y-75100000D01*
X112950000Y-75100000D02*
X113150000Y-74900000D01*
X110970000Y-74420000D02*
X111650000Y-75100000D01*
X108950000Y-74420000D02*
X110970000Y-74420000D01*
X124250000Y-57300000D02*
X129500000Y-57300000D01*
X129500000Y-57300000D02*
X130425000Y-58225000D01*
%TO.N,/SDA*%
X130730000Y-63000000D02*
X135505000Y-58225000D01*
X120130000Y-59180000D02*
X123950000Y-63000000D01*
X108950000Y-59180000D02*
X120130000Y-59180000D01*
X123950000Y-63000000D02*
X130730000Y-63000000D01*
%TO.N,/SCL*%
X129690000Y-61500000D02*
X132965000Y-58225000D01*
X125650000Y-61500000D02*
X129690000Y-61500000D01*
X120790000Y-56640000D02*
X125650000Y-61500000D01*
X108950000Y-56640000D02*
X120790000Y-56640000D01*
%TO.N,/DOWN*%
X117350000Y-75300000D02*
X117350000Y-77350000D01*
X114500000Y-72450000D02*
X117350000Y-75300000D01*
X111230000Y-71880000D02*
X111800000Y-72450000D01*
X108950000Y-71880000D02*
X111230000Y-71880000D01*
X111800000Y-72450000D02*
X114500000Y-72450000D01*
D16*
%TO.N,/VCC*%
X133800000Y-76600000D02*
X133800000Y-78100000D01*
X122240000Y-89660000D02*
X108950000Y-89660000D01*
X133800000Y-78100000D02*
X122240000Y-89660000D01*
X138045000Y-62855000D02*
X133800000Y-67100000D01*
X138045000Y-58225000D02*
X138045000Y-62855000D01*
%TD*%
%TA.AperFunction,Conductor*%
%TO.N,/GND*%
G36*
X151433621Y-45528502D02*
G01*
X151480114Y-45582158D01*
X151491500Y-45634500D01*
X151491500Y-94365500D01*
X151471498Y-94433621D01*
X151417842Y-94480114D01*
X151365500Y-94491500D01*
X82634500Y-94491500D01*
X82566379Y-94471498D01*
X82519886Y-94417842D01*
X82508500Y-94365500D01*
X82508500Y-89646695D01*
X84737251Y-89646695D01*
X84737548Y-89651848D01*
X84737548Y-89651851D01*
X84748659Y-89844547D01*
X84750110Y-89869715D01*
X84751247Y-89874761D01*
X84751248Y-89874767D01*
X84771119Y-89962939D01*
X84799222Y-90087639D01*
X84837038Y-90180769D01*
X84870645Y-90263533D01*
X84883266Y-90294616D01*
X84906272Y-90332158D01*
X84965936Y-90429521D01*
X84999987Y-90485088D01*
X85146250Y-90653938D01*
X85318126Y-90796632D01*
X85511000Y-90909338D01*
X85719692Y-90989030D01*
X85724760Y-90990061D01*
X85724763Y-90990062D01*
X85832017Y-91011883D01*
X85938597Y-91033567D01*
X85943772Y-91033757D01*
X85943774Y-91033757D01*
X86156673Y-91041564D01*
X86156677Y-91041564D01*
X86161837Y-91041753D01*
X86166957Y-91041097D01*
X86166959Y-91041097D01*
X86378288Y-91014025D01*
X86378289Y-91014025D01*
X86383416Y-91013368D01*
X86388366Y-91011883D01*
X86592429Y-90950661D01*
X86592434Y-90950659D01*
X86597384Y-90949174D01*
X86797994Y-90850896D01*
X86979860Y-90721173D01*
X86986843Y-90714215D01*
X87134435Y-90567137D01*
X87138096Y-90563489D01*
X87148883Y-90548478D01*
X87265435Y-90386277D01*
X87268453Y-90382077D01*
X87285505Y-90347576D01*
X87365136Y-90186453D01*
X87365137Y-90186451D01*
X87367430Y-90181811D01*
X87403650Y-90062596D01*
X87430865Y-89973023D01*
X87430865Y-89973021D01*
X87432370Y-89968069D01*
X87461529Y-89746590D01*
X87461620Y-89742872D01*
X87463074Y-89683365D01*
X87463074Y-89683361D01*
X87463156Y-89680000D01*
X87458774Y-89626695D01*
X107587251Y-89626695D01*
X107587548Y-89631848D01*
X107587548Y-89631851D01*
X107593971Y-89743240D01*
X107600110Y-89849715D01*
X107601247Y-89854761D01*
X107601248Y-89854767D01*
X107625304Y-89961508D01*
X107649222Y-90067639D01*
X107695159Y-90180769D01*
X107729683Y-90265791D01*
X107733266Y-90274616D01*
X107771147Y-90336432D01*
X107828192Y-90429521D01*
X107849987Y-90465088D01*
X107996250Y-90633938D01*
X108168126Y-90776632D01*
X108361000Y-90889338D01*
X108365825Y-90891180D01*
X108365826Y-90891181D01*
X108413375Y-90909338D01*
X108569692Y-90969030D01*
X108574760Y-90970061D01*
X108574763Y-90970062D01*
X108673067Y-90990062D01*
X108788597Y-91013567D01*
X108793772Y-91013757D01*
X108793774Y-91013757D01*
X109006673Y-91021564D01*
X109006677Y-91021564D01*
X109011837Y-91021753D01*
X109016957Y-91021097D01*
X109016959Y-91021097D01*
X109228288Y-90994025D01*
X109228289Y-90994025D01*
X109233416Y-90993368D01*
X109238366Y-90991883D01*
X109442429Y-90930661D01*
X109442434Y-90930659D01*
X109447384Y-90929174D01*
X109647994Y-90830896D01*
X109829860Y-90701173D01*
X109835421Y-90695632D01*
X109881213Y-90650000D01*
X126361496Y-90650000D01*
X126362186Y-90656565D01*
X126377104Y-90798498D01*
X126381458Y-90839928D01*
X126440473Y-91021556D01*
X126443776Y-91027278D01*
X126443777Y-91027279D01*
X126447517Y-91033757D01*
X126535960Y-91186944D01*
X126663747Y-91328866D01*
X126818248Y-91441118D01*
X126824276Y-91443802D01*
X126824278Y-91443803D01*
X126986681Y-91516109D01*
X126992712Y-91518794D01*
X127086112Y-91538647D01*
X127173056Y-91557128D01*
X127173061Y-91557128D01*
X127179513Y-91558500D01*
X127370487Y-91558500D01*
X127376939Y-91557128D01*
X127376944Y-91557128D01*
X127463888Y-91538647D01*
X127557288Y-91518794D01*
X127563319Y-91516109D01*
X127725722Y-91443803D01*
X127725724Y-91443802D01*
X127731752Y-91441118D01*
X127886253Y-91328866D01*
X128014040Y-91186944D01*
X128102483Y-91033757D01*
X128106223Y-91027279D01*
X128106224Y-91027278D01*
X128109527Y-91021556D01*
X128139544Y-90929174D01*
X128166502Y-90846207D01*
X128166502Y-90846205D01*
X128168542Y-90839928D01*
X128181755Y-90714215D01*
X128208768Y-90648559D01*
X128217969Y-90638291D01*
X128387270Y-90468990D01*
X128560854Y-90295405D01*
X128623167Y-90261380D01*
X128649950Y-90258500D01*
X131071643Y-90258500D01*
X131139764Y-90278502D01*
X131186257Y-90332158D01*
X131191166Y-90344622D01*
X131198630Y-90366995D01*
X131198633Y-90367002D01*
X131200950Y-90373946D01*
X131294022Y-90524348D01*
X131299204Y-90529521D01*
X131316851Y-90547137D01*
X131419197Y-90649305D01*
X131425427Y-90653145D01*
X131425428Y-90653146D01*
X131562590Y-90737694D01*
X131569762Y-90742115D01*
X131649505Y-90768564D01*
X131731111Y-90795632D01*
X131731113Y-90795632D01*
X131737639Y-90797797D01*
X131744475Y-90798497D01*
X131744478Y-90798498D01*
X131787531Y-90802909D01*
X131842100Y-90808500D01*
X132467900Y-90808500D01*
X132471146Y-90808163D01*
X132471150Y-90808163D01*
X132566808Y-90798238D01*
X132566812Y-90798237D01*
X132573666Y-90797526D01*
X132580202Y-90795345D01*
X132580204Y-90795345D01*
X132712306Y-90751272D01*
X132741446Y-90741550D01*
X132891848Y-90648478D01*
X132978284Y-90561891D01*
X133040566Y-90527812D01*
X133111386Y-90532815D01*
X133156475Y-90561736D01*
X133224889Y-90630031D01*
X133244197Y-90649305D01*
X133250427Y-90653145D01*
X133250428Y-90653146D01*
X133387590Y-90737694D01*
X133394762Y-90742115D01*
X133474505Y-90768564D01*
X133556111Y-90795632D01*
X133556113Y-90795632D01*
X133562639Y-90797797D01*
X133569475Y-90798497D01*
X133569478Y-90798498D01*
X133612531Y-90802909D01*
X133667100Y-90808500D01*
X134292900Y-90808500D01*
X134296146Y-90808163D01*
X134296150Y-90808163D01*
X134391808Y-90798238D01*
X134391812Y-90798237D01*
X134398666Y-90797526D01*
X134405202Y-90795345D01*
X134405204Y-90795345D01*
X134537306Y-90751272D01*
X134566446Y-90741550D01*
X134716848Y-90648478D01*
X134841805Y-90523303D01*
X134876736Y-90466635D01*
X134930775Y-90378968D01*
X134930776Y-90378966D01*
X134934615Y-90372738D01*
X134943872Y-90344830D01*
X134984303Y-90286472D01*
X135049867Y-90259236D01*
X135063464Y-90258500D01*
X136028689Y-90258500D01*
X136096810Y-90278502D01*
X136135833Y-90318196D01*
X136201522Y-90424348D01*
X136326697Y-90549305D01*
X136332927Y-90553145D01*
X136332928Y-90553146D01*
X136470090Y-90637694D01*
X136477262Y-90642115D01*
X136520828Y-90656565D01*
X136638611Y-90695632D01*
X136638613Y-90695632D01*
X136645139Y-90697797D01*
X136651975Y-90698497D01*
X136651978Y-90698498D01*
X136695031Y-90702909D01*
X136749600Y-90708500D01*
X137500400Y-90708500D01*
X137503646Y-90708163D01*
X137503650Y-90708163D01*
X137599308Y-90698238D01*
X137599312Y-90698237D01*
X137606166Y-90697526D01*
X137612702Y-90695345D01*
X137612704Y-90695345D01*
X137748618Y-90650000D01*
X137773946Y-90641550D01*
X137924348Y-90548478D01*
X138049305Y-90423303D01*
X138084754Y-90365795D01*
X138138275Y-90278968D01*
X138138276Y-90278966D01*
X138142115Y-90272738D01*
X138197797Y-90104861D01*
X138208500Y-90000400D01*
X138208500Y-88999600D01*
X138207593Y-88990855D01*
X138198238Y-88900692D01*
X138198237Y-88900688D01*
X138197526Y-88893834D01*
X138188855Y-88867842D01*
X138143868Y-88733002D01*
X138141550Y-88726054D01*
X138048478Y-88575652D01*
X138028658Y-88555866D01*
X137928483Y-88455866D01*
X137923303Y-88450695D01*
X137917072Y-88446854D01*
X137778968Y-88361725D01*
X137778966Y-88361724D01*
X137772738Y-88357885D01*
X137631070Y-88310896D01*
X137611389Y-88304368D01*
X137611387Y-88304368D01*
X137604861Y-88302203D01*
X137598025Y-88301503D01*
X137598022Y-88301502D01*
X137554969Y-88297091D01*
X137500400Y-88291500D01*
X136749600Y-88291500D01*
X136746354Y-88291837D01*
X136746350Y-88291837D01*
X136650692Y-88301762D01*
X136650688Y-88301763D01*
X136643834Y-88302474D01*
X136637298Y-88304655D01*
X136637296Y-88304655D01*
X136618590Y-88310896D01*
X136476054Y-88358450D01*
X136325652Y-88451522D01*
X136200695Y-88576697D01*
X136196855Y-88582927D01*
X136196854Y-88582928D01*
X136137112Y-88679848D01*
X136107885Y-88727262D01*
X136105581Y-88734209D01*
X136065461Y-88855167D01*
X136025031Y-88913527D01*
X135959466Y-88940764D01*
X135945868Y-88941500D01*
X135063357Y-88941500D01*
X134995236Y-88921498D01*
X134948743Y-88867842D01*
X134943834Y-88855378D01*
X134936370Y-88833005D01*
X134936367Y-88832998D01*
X134934050Y-88826054D01*
X134840978Y-88675652D01*
X134802790Y-88637530D01*
X134736661Y-88571517D01*
X134715803Y-88550695D01*
X134673466Y-88524598D01*
X134571468Y-88461725D01*
X134571466Y-88461724D01*
X134565238Y-88457885D01*
X134448416Y-88419137D01*
X134403889Y-88404368D01*
X134403887Y-88404368D01*
X134397361Y-88402203D01*
X134390525Y-88401503D01*
X134390522Y-88401502D01*
X134347469Y-88397091D01*
X134292900Y-88391500D01*
X133667100Y-88391500D01*
X133663854Y-88391837D01*
X133663850Y-88391837D01*
X133568192Y-88401762D01*
X133568188Y-88401763D01*
X133561334Y-88402474D01*
X133554798Y-88404655D01*
X133554796Y-88404655D01*
X133498740Y-88423357D01*
X133393554Y-88458450D01*
X133243152Y-88551522D01*
X133237979Y-88556704D01*
X133156716Y-88638109D01*
X133094434Y-88672188D01*
X133023614Y-88667185D01*
X132978525Y-88638264D01*
X132895983Y-88555866D01*
X132890803Y-88550695D01*
X132848466Y-88524598D01*
X132746468Y-88461725D01*
X132746466Y-88461724D01*
X132740238Y-88457885D01*
X132623416Y-88419137D01*
X132578889Y-88404368D01*
X132578887Y-88404368D01*
X132572361Y-88402203D01*
X132565525Y-88401503D01*
X132565522Y-88401502D01*
X132522469Y-88397091D01*
X132467900Y-88391500D01*
X131842100Y-88391500D01*
X131838854Y-88391837D01*
X131838850Y-88391837D01*
X131743192Y-88401762D01*
X131743188Y-88401763D01*
X131736334Y-88402474D01*
X131729798Y-88404655D01*
X131729796Y-88404655D01*
X131673740Y-88423357D01*
X131568554Y-88458450D01*
X131418152Y-88551522D01*
X131293195Y-88676697D01*
X131289355Y-88682927D01*
X131289354Y-88682928D01*
X131215872Y-88802138D01*
X131200385Y-88827262D01*
X131191129Y-88855169D01*
X131150697Y-88913528D01*
X131085133Y-88940764D01*
X131071536Y-88941500D01*
X128407056Y-88941500D01*
X128395200Y-88940941D01*
X128395197Y-88940941D01*
X128387463Y-88939212D01*
X128338078Y-88940764D01*
X128316631Y-88941438D01*
X128312673Y-88941500D01*
X128283568Y-88941500D01*
X128279168Y-88942056D01*
X128267336Y-88942988D01*
X128221169Y-88944438D01*
X128200579Y-88950420D01*
X128181218Y-88954430D01*
X128174230Y-88955312D01*
X128167796Y-88956125D01*
X128167795Y-88956125D01*
X128159936Y-88957118D01*
X128152571Y-88960034D01*
X128152567Y-88960035D01*
X128116979Y-88974126D01*
X128105769Y-88977965D01*
X128061400Y-88990855D01*
X128042943Y-89001771D01*
X128025193Y-89010466D01*
X128005244Y-89018365D01*
X127998833Y-89023023D01*
X127998831Y-89023024D01*
X127967864Y-89045523D01*
X127957946Y-89052038D01*
X127918193Y-89075548D01*
X127903032Y-89090709D01*
X127888000Y-89103548D01*
X127870643Y-89116159D01*
X127842917Y-89149675D01*
X127841198Y-89151752D01*
X127833208Y-89160533D01*
X127289144Y-89704596D01*
X127226832Y-89738621D01*
X127200049Y-89741500D01*
X127179513Y-89741500D01*
X127173061Y-89742872D01*
X127173056Y-89742872D01*
X127086112Y-89761353D01*
X126992712Y-89781206D01*
X126986682Y-89783891D01*
X126986681Y-89783891D01*
X126824278Y-89856197D01*
X126824276Y-89856198D01*
X126818248Y-89858882D01*
X126812907Y-89862762D01*
X126812906Y-89862763D01*
X126796384Y-89874767D01*
X126663747Y-89971134D01*
X126659326Y-89976044D01*
X126659325Y-89976045D01*
X126549497Y-90098022D01*
X126535960Y-90113056D01*
X126496866Y-90180769D01*
X126445251Y-90270169D01*
X126440473Y-90278444D01*
X126381458Y-90460072D01*
X126380768Y-90466633D01*
X126380768Y-90466635D01*
X126370205Y-90567137D01*
X126361496Y-90650000D01*
X109881213Y-90650000D01*
X109968026Y-90563489D01*
X109988096Y-90543489D01*
X110002601Y-90523303D01*
X110094096Y-90395974D01*
X110150091Y-90352326D01*
X110196419Y-90343500D01*
X122211955Y-90343500D01*
X122220524Y-90343792D01*
X122268458Y-90347060D01*
X122268462Y-90347060D01*
X122276034Y-90347576D01*
X122283511Y-90346271D01*
X122283514Y-90346271D01*
X122336647Y-90336998D01*
X122343171Y-90336035D01*
X122396691Y-90329558D01*
X122404235Y-90328645D01*
X122411345Y-90325958D01*
X122416248Y-90324754D01*
X122426734Y-90321886D01*
X122431526Y-90320439D01*
X122439004Y-90319134D01*
X122445957Y-90316082D01*
X122495341Y-90294405D01*
X122501446Y-90291914D01*
X122551882Y-90272855D01*
X122551885Y-90272853D01*
X122558989Y-90270169D01*
X122565246Y-90265869D01*
X122569714Y-90263533D01*
X122579160Y-90258275D01*
X122583526Y-90255693D01*
X122590485Y-90252638D01*
X122639304Y-90215177D01*
X122644623Y-90211314D01*
X122689065Y-90180769D01*
X122695326Y-90176466D01*
X122735233Y-90131676D01*
X122740213Y-90126402D01*
X130966615Y-81900000D01*
X138436496Y-81900000D01*
X138437186Y-81906565D01*
X138449273Y-82021562D01*
X138456458Y-82089928D01*
X138515473Y-82271556D01*
X138610960Y-82436944D01*
X138615378Y-82441851D01*
X138615379Y-82441852D01*
X138709562Y-82546453D01*
X138738747Y-82578866D01*
X138836419Y-82649829D01*
X138876597Y-82679020D01*
X138893248Y-82691118D01*
X138899276Y-82693802D01*
X138899278Y-82693803D01*
X139052625Y-82762077D01*
X139067712Y-82768794D01*
X139161112Y-82788647D01*
X139248056Y-82807128D01*
X139248061Y-82807128D01*
X139254513Y-82808500D01*
X139445487Y-82808500D01*
X139451939Y-82807128D01*
X139451944Y-82807128D01*
X139538888Y-82788647D01*
X139632288Y-82768794D01*
X139647375Y-82762077D01*
X139800722Y-82693803D01*
X139800724Y-82693802D01*
X139806752Y-82691118D01*
X139823404Y-82679020D01*
X139863581Y-82649829D01*
X139961253Y-82578866D01*
X139990438Y-82546453D01*
X140084621Y-82441852D01*
X140084622Y-82441851D01*
X140089040Y-82436944D01*
X140184527Y-82271556D01*
X140243542Y-82089928D01*
X140250728Y-82021562D01*
X140262814Y-81906565D01*
X140263504Y-81900000D01*
X140257463Y-81842522D01*
X140244232Y-81716635D01*
X140244232Y-81716633D01*
X140243542Y-81710072D01*
X140184527Y-81528444D01*
X140089040Y-81363056D01*
X140040864Y-81309551D01*
X140010146Y-81245544D01*
X140008500Y-81225241D01*
X140008500Y-74974950D01*
X140028502Y-74906829D01*
X140045405Y-74885855D01*
X145785855Y-69145405D01*
X145848167Y-69111379D01*
X145874950Y-69108500D01*
X146054143Y-69108500D01*
X146122264Y-69128502D01*
X146168757Y-69182158D01*
X146173666Y-69194622D01*
X146181130Y-69216995D01*
X146181133Y-69217002D01*
X146183450Y-69223946D01*
X146276522Y-69374348D01*
X146401697Y-69499305D01*
X146407927Y-69503145D01*
X146407928Y-69503146D01*
X146545090Y-69587694D01*
X146552262Y-69592115D01*
X146627505Y-69617072D01*
X146713611Y-69645632D01*
X146713613Y-69645632D01*
X146720139Y-69647797D01*
X146726977Y-69648498D01*
X146726979Y-69648498D01*
X146774665Y-69653384D01*
X146840392Y-69680226D01*
X146881174Y-69738341D01*
X146884062Y-69809279D01*
X146850917Y-69867823D01*
X146467395Y-70251345D01*
X146458615Y-70259335D01*
X146458613Y-70259337D01*
X146451920Y-70263584D01*
X146446494Y-70269362D01*
X146446493Y-70269363D01*
X146403396Y-70315257D01*
X146400641Y-70318099D01*
X146380073Y-70338667D01*
X146377356Y-70342170D01*
X146369648Y-70351195D01*
X146338028Y-70384867D01*
X146334207Y-70391818D01*
X146334206Y-70391819D01*
X146327697Y-70403658D01*
X146316843Y-70420182D01*
X146309018Y-70430271D01*
X146303696Y-70437132D01*
X146300549Y-70444404D01*
X146300548Y-70444406D01*
X146285346Y-70479535D01*
X146280124Y-70490195D01*
X146257876Y-70530663D01*
X146252541Y-70551441D01*
X146246142Y-70570131D01*
X146237620Y-70589824D01*
X146231392Y-70629144D01*
X146230394Y-70635448D01*
X146227987Y-70647071D01*
X146216500Y-70691812D01*
X146216500Y-70713259D01*
X146214949Y-70732969D01*
X146211594Y-70754152D01*
X146212582Y-70764598D01*
X146215941Y-70800138D01*
X146216500Y-70811996D01*
X146216500Y-71094160D01*
X146196498Y-71162281D01*
X146156803Y-71201304D01*
X146075652Y-71251522D01*
X146070479Y-71256704D01*
X146036896Y-71290346D01*
X145950695Y-71376697D01*
X145946855Y-71382927D01*
X145946854Y-71382928D01*
X145891706Y-71472395D01*
X145857885Y-71527262D01*
X145831813Y-71605866D01*
X145808100Y-71677361D01*
X145802203Y-71695139D01*
X145801503Y-71701975D01*
X145801502Y-71701978D01*
X145797091Y-71745031D01*
X145791500Y-71799600D01*
X145791500Y-72800400D01*
X145791837Y-72803646D01*
X145791837Y-72803650D01*
X145799473Y-72877240D01*
X145802474Y-72906166D01*
X145804655Y-72912702D01*
X145804655Y-72912704D01*
X145836501Y-73008157D01*
X145858450Y-73073946D01*
X145951522Y-73224348D01*
X145956704Y-73229521D01*
X145987263Y-73260027D01*
X146076697Y-73349305D01*
X146082927Y-73353145D01*
X146082928Y-73353146D01*
X146220090Y-73437694D01*
X146227262Y-73442115D01*
X146307005Y-73468564D01*
X146388611Y-73495632D01*
X146388613Y-73495632D01*
X146395139Y-73497797D01*
X146401975Y-73498497D01*
X146401978Y-73498498D01*
X146445031Y-73502909D01*
X146499600Y-73508500D01*
X147250400Y-73508500D01*
X147253646Y-73508163D01*
X147253650Y-73508163D01*
X147349308Y-73498238D01*
X147349312Y-73498237D01*
X147356166Y-73497526D01*
X147362702Y-73495345D01*
X147362704Y-73495345D01*
X147508000Y-73446870D01*
X147523946Y-73441550D01*
X147674348Y-73348478D01*
X147799305Y-73223303D01*
X147832689Y-73169144D01*
X147888275Y-73078968D01*
X147888276Y-73078966D01*
X147892115Y-73072738D01*
X147947797Y-72904861D01*
X147958500Y-72800400D01*
X147958500Y-71799600D01*
X147955584Y-71771498D01*
X147948238Y-71700692D01*
X147948237Y-71700688D01*
X147947526Y-71693834D01*
X147926132Y-71629707D01*
X147893868Y-71533002D01*
X147891550Y-71526054D01*
X147798478Y-71375652D01*
X147673303Y-71250695D01*
X147665312Y-71245769D01*
X147596958Y-71203634D01*
X147549465Y-71150862D01*
X147538043Y-71080790D01*
X147566317Y-71015667D01*
X147573980Y-71007280D01*
X148885855Y-69695405D01*
X148948167Y-69661379D01*
X148974950Y-69658500D01*
X149275400Y-69658500D01*
X149278646Y-69658163D01*
X149278650Y-69658163D01*
X149374308Y-69648238D01*
X149374312Y-69648237D01*
X149381166Y-69647526D01*
X149387702Y-69645345D01*
X149387704Y-69645345D01*
X149519806Y-69601272D01*
X149548946Y-69591550D01*
X149699348Y-69498478D01*
X149824305Y-69373303D01*
X149834573Y-69356646D01*
X149913275Y-69228968D01*
X149913276Y-69228966D01*
X149917115Y-69222738D01*
X149948372Y-69128502D01*
X149970632Y-69061389D01*
X149970632Y-69061387D01*
X149972797Y-69054861D01*
X149983500Y-68950400D01*
X149983500Y-67949600D01*
X149982578Y-67940711D01*
X149973238Y-67850692D01*
X149973237Y-67850688D01*
X149972526Y-67843834D01*
X149967235Y-67827973D01*
X149919269Y-67684205D01*
X149916550Y-67676054D01*
X149823478Y-67525652D01*
X149698303Y-67400695D01*
X149570330Y-67321811D01*
X149553968Y-67311725D01*
X149553966Y-67311724D01*
X149547738Y-67307885D01*
X149387254Y-67254655D01*
X149386389Y-67254368D01*
X149386387Y-67254368D01*
X149379861Y-67252203D01*
X149373025Y-67251503D01*
X149373022Y-67251502D01*
X149329969Y-67247091D01*
X149275400Y-67241500D01*
X148649600Y-67241500D01*
X148646354Y-67241837D01*
X148646350Y-67241837D01*
X148550692Y-67251762D01*
X148550688Y-67251763D01*
X148543834Y-67252474D01*
X148537298Y-67254655D01*
X148537296Y-67254655D01*
X148431571Y-67289928D01*
X148376054Y-67308450D01*
X148225652Y-67401522D01*
X148220479Y-67406704D01*
X148139216Y-67488109D01*
X148076934Y-67522188D01*
X148006114Y-67517185D01*
X147961025Y-67488264D01*
X147878483Y-67405866D01*
X147873303Y-67400695D01*
X147745330Y-67321811D01*
X147728968Y-67311725D01*
X147728966Y-67311724D01*
X147722738Y-67307885D01*
X147562254Y-67254655D01*
X147561389Y-67254368D01*
X147561387Y-67254368D01*
X147554861Y-67252203D01*
X147548025Y-67251503D01*
X147548022Y-67251502D01*
X147504969Y-67247091D01*
X147450400Y-67241500D01*
X146824600Y-67241500D01*
X146821354Y-67241837D01*
X146821350Y-67241837D01*
X146725692Y-67251762D01*
X146725688Y-67251763D01*
X146718834Y-67252474D01*
X146712298Y-67254655D01*
X146712296Y-67254655D01*
X146606571Y-67289928D01*
X146551054Y-67308450D01*
X146400652Y-67401522D01*
X146275695Y-67526697D01*
X146271855Y-67532927D01*
X146271854Y-67532928D01*
X146215046Y-67625088D01*
X146182885Y-67677262D01*
X146179610Y-67687137D01*
X146173629Y-67705169D01*
X146133197Y-67763528D01*
X146067633Y-67790764D01*
X146054036Y-67791500D01*
X145632056Y-67791500D01*
X145620200Y-67790941D01*
X145620197Y-67790941D01*
X145612463Y-67789212D01*
X145563078Y-67790764D01*
X145541631Y-67791438D01*
X145537673Y-67791500D01*
X145508568Y-67791500D01*
X145504168Y-67792056D01*
X145492336Y-67792988D01*
X145446169Y-67794438D01*
X145425579Y-67800420D01*
X145406218Y-67804430D01*
X145399230Y-67805312D01*
X145392796Y-67806125D01*
X145392795Y-67806125D01*
X145384936Y-67807118D01*
X145377571Y-67810034D01*
X145377567Y-67810035D01*
X145341979Y-67824126D01*
X145330769Y-67827965D01*
X145286400Y-67840855D01*
X145267935Y-67851775D01*
X145250195Y-67860466D01*
X145230244Y-67868365D01*
X145192874Y-67895516D01*
X145182952Y-67902033D01*
X145150023Y-67921507D01*
X145150019Y-67921510D01*
X145143193Y-67925547D01*
X145128029Y-67940711D01*
X145112996Y-67953551D01*
X145095643Y-67966159D01*
X145076823Y-67988909D01*
X145066198Y-68001752D01*
X145058208Y-68010532D01*
X138942395Y-74126345D01*
X138933615Y-74134335D01*
X138933613Y-74134337D01*
X138926920Y-74138584D01*
X138921494Y-74144362D01*
X138921493Y-74144363D01*
X138878396Y-74190257D01*
X138875641Y-74193099D01*
X138855073Y-74213667D01*
X138852356Y-74217170D01*
X138844648Y-74226195D01*
X138813028Y-74259867D01*
X138809207Y-74266818D01*
X138809206Y-74266819D01*
X138802697Y-74278658D01*
X138791843Y-74295182D01*
X138784018Y-74305271D01*
X138778696Y-74312132D01*
X138775549Y-74319404D01*
X138775548Y-74319406D01*
X138760346Y-74354535D01*
X138755124Y-74365195D01*
X138732876Y-74405663D01*
X138727541Y-74426441D01*
X138721142Y-74445131D01*
X138712620Y-74464824D01*
X138711380Y-74472655D01*
X138705394Y-74510448D01*
X138702987Y-74522071D01*
X138701351Y-74528444D01*
X138691500Y-74566812D01*
X138691500Y-74588259D01*
X138689949Y-74607969D01*
X138686594Y-74629152D01*
X138687340Y-74637043D01*
X138690941Y-74675138D01*
X138691500Y-74686996D01*
X138691500Y-81225241D01*
X138671498Y-81293362D01*
X138659136Y-81309551D01*
X138610960Y-81363056D01*
X138515473Y-81528444D01*
X138456458Y-81710072D01*
X138455768Y-81716633D01*
X138455768Y-81716635D01*
X138442537Y-81842522D01*
X138436496Y-81900000D01*
X130966615Y-81900000D01*
X134263459Y-78603156D01*
X134269724Y-78597302D01*
X134305945Y-78565704D01*
X134311670Y-78560710D01*
X134347066Y-78510345D01*
X134350980Y-78505077D01*
X134352569Y-78503051D01*
X134388935Y-78456672D01*
X134392061Y-78449748D01*
X134394671Y-78445439D01*
X134400042Y-78436024D01*
X134402427Y-78431576D01*
X134406795Y-78425361D01*
X134429144Y-78368039D01*
X134431698Y-78361962D01*
X134437275Y-78349612D01*
X134457014Y-78305895D01*
X134458400Y-78298418D01*
X134459910Y-78293598D01*
X134462878Y-78283182D01*
X134464131Y-78278302D01*
X134466889Y-78271228D01*
X134467881Y-78263695D01*
X134474921Y-78210223D01*
X134475953Y-78203710D01*
X134485777Y-78150701D01*
X134485777Y-78150699D01*
X134487161Y-78143232D01*
X134483709Y-78083357D01*
X134483500Y-78076105D01*
X134483500Y-77246994D01*
X134503502Y-77178873D01*
X134515865Y-77162683D01*
X134534617Y-77141857D01*
X134534620Y-77141853D01*
X134539040Y-77136944D01*
X134634527Y-76971556D01*
X134693542Y-76789928D01*
X134696423Y-76762522D01*
X134712814Y-76606565D01*
X134713504Y-76600000D01*
X134706773Y-76535954D01*
X134694232Y-76416635D01*
X134694232Y-76416633D01*
X134693542Y-76410072D01*
X134634527Y-76228444D01*
X134539040Y-76063056D01*
X134432178Y-75944373D01*
X134415675Y-75926045D01*
X134415674Y-75926044D01*
X134411253Y-75921134D01*
X134278383Y-75824598D01*
X134262094Y-75812763D01*
X134262093Y-75812762D01*
X134256752Y-75808882D01*
X134250724Y-75806198D01*
X134250722Y-75806197D01*
X134088319Y-75733891D01*
X134088318Y-75733891D01*
X134082288Y-75731206D01*
X133978495Y-75709144D01*
X133901944Y-75692872D01*
X133901939Y-75692872D01*
X133895487Y-75691500D01*
X133704513Y-75691500D01*
X133698061Y-75692872D01*
X133698056Y-75692872D01*
X133621505Y-75709144D01*
X133517712Y-75731206D01*
X133511682Y-75733891D01*
X133511681Y-75733891D01*
X133349278Y-75806197D01*
X133349276Y-75806198D01*
X133343248Y-75808882D01*
X133337907Y-75812762D01*
X133337906Y-75812763D01*
X133321617Y-75824598D01*
X133188747Y-75921134D01*
X133184326Y-75926044D01*
X133184325Y-75926045D01*
X133167823Y-75944373D01*
X133060960Y-76063056D01*
X132965473Y-76228444D01*
X132906458Y-76410072D01*
X132905768Y-76416633D01*
X132905768Y-76416635D01*
X132893227Y-76535954D01*
X132886496Y-76600000D01*
X132887186Y-76606565D01*
X132903578Y-76762522D01*
X132906458Y-76789928D01*
X132965473Y-76971556D01*
X133060960Y-77136944D01*
X133065380Y-77141853D01*
X133065383Y-77141857D01*
X133084135Y-77162683D01*
X133114853Y-77226690D01*
X133116500Y-77246994D01*
X133116500Y-77764695D01*
X133096498Y-77832816D01*
X133079595Y-77853790D01*
X121993790Y-88939595D01*
X121931478Y-88973621D01*
X121904695Y-88976500D01*
X110194459Y-88976500D01*
X110126338Y-88956498D01*
X110088667Y-88918940D01*
X110032822Y-88832617D01*
X110032820Y-88832614D01*
X110030014Y-88828277D01*
X109879670Y-88663051D01*
X109875619Y-88659852D01*
X109875615Y-88659848D01*
X109708414Y-88527800D01*
X109708410Y-88527798D01*
X109704359Y-88524598D01*
X109508789Y-88416638D01*
X109503920Y-88414914D01*
X109503916Y-88414912D01*
X109303087Y-88343795D01*
X109303083Y-88343794D01*
X109298212Y-88342069D01*
X109293119Y-88341162D01*
X109293116Y-88341161D01*
X109083373Y-88303800D01*
X109083367Y-88303799D01*
X109078284Y-88302894D01*
X109004452Y-88301992D01*
X108860081Y-88300228D01*
X108860079Y-88300228D01*
X108854911Y-88300165D01*
X108634091Y-88333955D01*
X108421756Y-88403357D01*
X108391443Y-88419137D01*
X108319278Y-88456704D01*
X108223607Y-88506507D01*
X108219474Y-88509610D01*
X108219471Y-88509612D01*
X108049100Y-88637530D01*
X108044965Y-88640635D01*
X108014812Y-88672188D01*
X107955544Y-88734209D01*
X107890629Y-88802138D01*
X107887715Y-88806410D01*
X107887714Y-88806411D01*
X107854455Y-88855167D01*
X107764743Y-88986680D01*
X107747873Y-89023024D01*
X107710494Y-89103551D01*
X107670688Y-89189305D01*
X107610989Y-89404570D01*
X107587251Y-89626695D01*
X87458774Y-89626695D01*
X87444852Y-89457361D01*
X87390431Y-89240702D01*
X87301354Y-89035840D01*
X87249784Y-88956125D01*
X87182822Y-88852617D01*
X87182820Y-88852614D01*
X87180014Y-88848277D01*
X87029670Y-88683051D01*
X87025619Y-88679852D01*
X87025615Y-88679848D01*
X86858414Y-88547800D01*
X86858410Y-88547798D01*
X86854359Y-88544598D01*
X86813053Y-88521796D01*
X86763084Y-88471364D01*
X86748312Y-88401921D01*
X86773428Y-88335516D01*
X86800780Y-88308909D01*
X86844603Y-88277650D01*
X86979860Y-88181173D01*
X87138096Y-88023489D01*
X87197594Y-87940689D01*
X87265435Y-87846277D01*
X87268453Y-87842077D01*
X87367430Y-87641811D01*
X87432370Y-87428069D01*
X87461529Y-87206590D01*
X87463156Y-87140000D01*
X87444852Y-86917361D01*
X87390431Y-86700702D01*
X87301354Y-86495840D01*
X87180014Y-86308277D01*
X87029670Y-86143051D01*
X87025619Y-86139852D01*
X87025615Y-86139848D01*
X86858414Y-86007800D01*
X86858410Y-86007798D01*
X86854359Y-86004598D01*
X86813053Y-85981796D01*
X86763084Y-85931364D01*
X86748312Y-85861921D01*
X86773428Y-85795516D01*
X86800780Y-85768909D01*
X86844603Y-85737650D01*
X86979860Y-85641173D01*
X87138096Y-85483489D01*
X87152468Y-85463489D01*
X87265435Y-85306277D01*
X87268453Y-85302077D01*
X87280631Y-85277438D01*
X87365136Y-85106453D01*
X87365137Y-85106451D01*
X87367430Y-85101811D01*
X87432370Y-84888069D01*
X87461529Y-84666590D01*
X87463156Y-84600000D01*
X87458774Y-84546695D01*
X107587251Y-84546695D01*
X107587548Y-84551848D01*
X107587548Y-84551851D01*
X107593011Y-84646590D01*
X107600110Y-84769715D01*
X107601247Y-84774761D01*
X107601248Y-84774767D01*
X107621119Y-84862939D01*
X107649222Y-84987639D01*
X107733266Y-85194616D01*
X107849987Y-85385088D01*
X107996250Y-85553938D01*
X108168126Y-85696632D01*
X108361000Y-85809338D01*
X108569692Y-85889030D01*
X108574760Y-85890061D01*
X108574763Y-85890062D01*
X108682017Y-85911883D01*
X108788597Y-85933567D01*
X108793772Y-85933757D01*
X108793774Y-85933757D01*
X109006673Y-85941564D01*
X109006677Y-85941564D01*
X109011837Y-85941753D01*
X109016957Y-85941097D01*
X109016959Y-85941097D01*
X109228288Y-85914025D01*
X109228289Y-85914025D01*
X109233416Y-85913368D01*
X109289180Y-85896638D01*
X109442429Y-85850661D01*
X109442434Y-85850659D01*
X109447384Y-85849174D01*
X109647994Y-85750896D01*
X109829860Y-85621173D01*
X109988096Y-85463489D01*
X110047594Y-85380689D01*
X110115435Y-85286277D01*
X110118453Y-85282077D01*
X110207546Y-85101811D01*
X110215136Y-85086453D01*
X110215137Y-85086451D01*
X110217430Y-85081811D01*
X110282370Y-84868069D01*
X110311529Y-84646590D01*
X110312585Y-84603365D01*
X110313074Y-84583365D01*
X110313074Y-84583361D01*
X110313156Y-84580000D01*
X110294852Y-84357361D01*
X110240431Y-84140702D01*
X110151354Y-83935840D01*
X110111906Y-83874862D01*
X110032822Y-83752617D01*
X110032820Y-83752614D01*
X110030014Y-83748277D01*
X109879670Y-83583051D01*
X109875619Y-83579852D01*
X109875615Y-83579848D01*
X109708414Y-83447800D01*
X109708410Y-83447798D01*
X109704359Y-83444598D01*
X109663053Y-83421796D01*
X109613084Y-83371364D01*
X109598312Y-83301921D01*
X109623428Y-83235516D01*
X109650780Y-83208909D01*
X109700664Y-83173327D01*
X109829860Y-83081173D01*
X109988096Y-82923489D01*
X110047594Y-82840689D01*
X110115435Y-82746277D01*
X110118453Y-82742077D01*
X110142312Y-82693803D01*
X110215136Y-82546453D01*
X110215137Y-82546451D01*
X110217430Y-82541811D01*
X110282370Y-82328069D01*
X110311529Y-82106590D01*
X110311936Y-82089928D01*
X110313074Y-82043365D01*
X110313074Y-82043361D01*
X110313156Y-82040000D01*
X110294852Y-81817361D01*
X110240431Y-81600702D01*
X110151354Y-81395840D01*
X110123601Y-81352940D01*
X110103394Y-81284879D01*
X110123190Y-81216699D01*
X110176706Y-81170044D01*
X110229393Y-81158500D01*
X112917944Y-81158500D01*
X112929800Y-81159059D01*
X112929803Y-81159059D01*
X112937537Y-81160788D01*
X113008369Y-81158562D01*
X113012327Y-81158500D01*
X113041432Y-81158500D01*
X113045832Y-81157944D01*
X113057664Y-81157012D01*
X113103831Y-81155562D01*
X113124421Y-81149580D01*
X113143782Y-81145570D01*
X113150770Y-81144688D01*
X113157204Y-81143875D01*
X113157205Y-81143875D01*
X113165064Y-81142882D01*
X113172429Y-81139966D01*
X113172433Y-81139965D01*
X113208021Y-81125874D01*
X113219231Y-81122035D01*
X113263600Y-81109145D01*
X113282065Y-81098225D01*
X113299805Y-81089534D01*
X113319756Y-81081635D01*
X113357129Y-81054482D01*
X113367048Y-81047967D01*
X113399977Y-81028493D01*
X113399981Y-81028490D01*
X113406807Y-81024453D01*
X113421971Y-81009289D01*
X113437005Y-80996448D01*
X113447943Y-80988501D01*
X113454357Y-80983841D01*
X113483803Y-80948247D01*
X113491792Y-80939468D01*
X114635855Y-79795405D01*
X114698167Y-79761379D01*
X114724950Y-79758500D01*
X118367944Y-79758500D01*
X118379800Y-79759059D01*
X118379803Y-79759059D01*
X118387537Y-79760788D01*
X118458369Y-79758562D01*
X118462327Y-79758500D01*
X118491432Y-79758500D01*
X118495832Y-79757944D01*
X118507664Y-79757012D01*
X118553831Y-79755562D01*
X118574421Y-79749580D01*
X118593782Y-79745570D01*
X118600770Y-79744688D01*
X118607204Y-79743875D01*
X118607205Y-79743875D01*
X118615064Y-79742882D01*
X118622429Y-79739966D01*
X118622433Y-79739965D01*
X118658021Y-79725874D01*
X118669231Y-79722035D01*
X118713600Y-79709145D01*
X118732065Y-79698225D01*
X118749805Y-79689534D01*
X118769756Y-79681635D01*
X118807129Y-79654482D01*
X118817048Y-79647967D01*
X118849977Y-79628493D01*
X118849981Y-79628490D01*
X118856807Y-79624453D01*
X118871971Y-79609289D01*
X118887005Y-79596448D01*
X118904357Y-79583841D01*
X118933803Y-79548247D01*
X118941792Y-79539468D01*
X120007605Y-78473655D01*
X120016385Y-78465665D01*
X120016387Y-78465663D01*
X120023080Y-78461416D01*
X120041318Y-78441995D01*
X120071604Y-78409743D01*
X120074359Y-78406901D01*
X120094927Y-78386333D01*
X120097647Y-78382826D01*
X120105353Y-78373804D01*
X120107022Y-78372027D01*
X120136972Y-78340133D01*
X120144374Y-78326669D01*
X120147303Y-78321342D01*
X120158157Y-78304818D01*
X120166445Y-78294132D01*
X120171304Y-78287868D01*
X120176164Y-78276638D01*
X120189654Y-78245465D01*
X120194876Y-78234805D01*
X120213305Y-78201284D01*
X120213306Y-78201282D01*
X120217124Y-78194337D01*
X120222459Y-78173559D01*
X120228858Y-78154869D01*
X120237380Y-78135176D01*
X120244606Y-78089552D01*
X120247013Y-78077929D01*
X120256528Y-78040868D01*
X120258500Y-78033188D01*
X120258500Y-78011741D01*
X120260051Y-77992031D01*
X120262166Y-77978677D01*
X120263406Y-77970848D01*
X120259059Y-77924859D01*
X120258500Y-77913004D01*
X120258500Y-72999950D01*
X120278502Y-72931829D01*
X120295405Y-72910855D01*
X122716405Y-70489855D01*
X122778717Y-70455829D01*
X122849532Y-70460894D01*
X122906368Y-70503441D01*
X122931179Y-70569961D01*
X122931500Y-70578950D01*
X122931500Y-71803238D01*
X122914242Y-71864125D01*
X122914821Y-71864395D01*
X122913150Y-71867979D01*
X122912760Y-71869353D01*
X122907885Y-71877262D01*
X122905579Y-71884213D01*
X122905579Y-71884214D01*
X122855309Y-72035776D01*
X122852203Y-72045139D01*
X122841500Y-72149600D01*
X122841500Y-73150400D01*
X122841837Y-73153646D01*
X122841837Y-73153650D01*
X122851489Y-73246669D01*
X122852474Y-73256166D01*
X122854655Y-73262702D01*
X122854655Y-73262704D01*
X122883272Y-73348478D01*
X122908450Y-73423946D01*
X123001522Y-73574348D01*
X123126697Y-73699305D01*
X123132927Y-73703145D01*
X123132928Y-73703146D01*
X123270090Y-73787694D01*
X123277262Y-73792115D01*
X123309706Y-73802876D01*
X123438611Y-73845632D01*
X123438613Y-73845632D01*
X123445139Y-73847797D01*
X123451975Y-73848497D01*
X123451978Y-73848498D01*
X123495031Y-73852909D01*
X123549600Y-73858500D01*
X124300400Y-73858500D01*
X124303646Y-73858163D01*
X124303650Y-73858163D01*
X124399308Y-73848238D01*
X124399312Y-73848237D01*
X124406166Y-73847526D01*
X124412702Y-73845345D01*
X124412704Y-73845345D01*
X124563374Y-73795077D01*
X124573946Y-73791550D01*
X124724348Y-73698478D01*
X124849305Y-73573303D01*
X124889250Y-73508500D01*
X124938275Y-73428968D01*
X124938276Y-73428966D01*
X124942115Y-73422738D01*
X124989450Y-73280027D01*
X124995632Y-73261389D01*
X124995632Y-73261387D01*
X124997797Y-73254861D01*
X124998637Y-73246669D01*
X125005375Y-73180897D01*
X125008500Y-73150400D01*
X125008500Y-72149600D01*
X125002811Y-72094767D01*
X124998238Y-72050692D01*
X124998237Y-72050688D01*
X124997526Y-72043834D01*
X124990073Y-72021493D01*
X124944272Y-71884214D01*
X124941550Y-71876054D01*
X124848478Y-71725652D01*
X124816605Y-71693834D01*
X124728483Y-71605866D01*
X124723303Y-71600695D01*
X124717072Y-71596854D01*
X124578968Y-71511725D01*
X124578966Y-71511724D01*
X124572738Y-71507885D01*
X124492995Y-71481436D01*
X124411389Y-71454368D01*
X124411387Y-71454368D01*
X124404861Y-71452203D01*
X124398025Y-71451503D01*
X124398022Y-71451502D01*
X124361656Y-71447776D01*
X124295929Y-71420934D01*
X124255148Y-71362819D01*
X124248500Y-71322432D01*
X124248500Y-70447450D01*
X124268502Y-70379329D01*
X124285405Y-70358355D01*
X124698355Y-69945405D01*
X124760667Y-69911379D01*
X124787450Y-69908500D01*
X125325400Y-69908500D01*
X125328646Y-69908163D01*
X125328650Y-69908163D01*
X125424308Y-69898238D01*
X125424312Y-69898237D01*
X125431166Y-69897526D01*
X125437702Y-69895345D01*
X125437704Y-69895345D01*
X125591998Y-69843868D01*
X125598946Y-69841550D01*
X125749348Y-69748478D01*
X125874305Y-69623303D01*
X125878146Y-69617072D01*
X125963275Y-69478968D01*
X125963276Y-69478966D01*
X125967115Y-69472738D01*
X126022797Y-69304861D01*
X126033500Y-69200400D01*
X126033500Y-68199600D01*
X126029573Y-68161753D01*
X126023238Y-68100692D01*
X126023237Y-68100688D01*
X126022526Y-68093834D01*
X126018552Y-68081921D01*
X125968868Y-67933002D01*
X125966550Y-67926054D01*
X125873478Y-67775652D01*
X125748303Y-67650695D01*
X125706761Y-67625088D01*
X125603968Y-67561725D01*
X125603966Y-67561724D01*
X125597738Y-67557885D01*
X125484962Y-67520479D01*
X125436389Y-67504368D01*
X125436387Y-67504368D01*
X125429861Y-67502203D01*
X125423025Y-67501503D01*
X125423022Y-67501502D01*
X125379969Y-67497091D01*
X125325400Y-67491500D01*
X124699600Y-67491500D01*
X124696354Y-67491837D01*
X124696350Y-67491837D01*
X124600692Y-67501762D01*
X124600688Y-67501763D01*
X124593834Y-67502474D01*
X124587298Y-67504655D01*
X124587296Y-67504655D01*
X124455194Y-67548728D01*
X124426054Y-67558450D01*
X124275652Y-67651522D01*
X124222099Y-67705169D01*
X124189216Y-67738109D01*
X124126934Y-67772188D01*
X124056114Y-67767185D01*
X124011025Y-67738264D01*
X123928483Y-67655866D01*
X123923303Y-67650695D01*
X123881761Y-67625088D01*
X123778968Y-67561725D01*
X123778966Y-67561724D01*
X123772738Y-67557885D01*
X123659962Y-67520479D01*
X123611389Y-67504368D01*
X123611387Y-67504368D01*
X123604861Y-67502203D01*
X123598025Y-67501503D01*
X123598022Y-67501502D01*
X123554969Y-67497091D01*
X123500400Y-67491500D01*
X122874600Y-67491500D01*
X122871354Y-67491837D01*
X122871350Y-67491837D01*
X122775692Y-67501762D01*
X122775688Y-67501763D01*
X122768834Y-67502474D01*
X122762298Y-67504655D01*
X122762296Y-67504655D01*
X122630194Y-67548728D01*
X122601054Y-67558450D01*
X122450652Y-67651522D01*
X122445479Y-67656704D01*
X122397098Y-67705169D01*
X122325695Y-67776697D01*
X122321855Y-67782927D01*
X122321854Y-67782928D01*
X122237829Y-67919242D01*
X122232885Y-67927262D01*
X122177203Y-68095139D01*
X122166500Y-68199600D01*
X122166500Y-69125050D01*
X122146498Y-69193171D01*
X122129595Y-69214145D01*
X119192395Y-72151345D01*
X119183615Y-72159335D01*
X119183613Y-72159337D01*
X119176920Y-72163584D01*
X119171494Y-72169362D01*
X119171493Y-72169363D01*
X119128396Y-72215257D01*
X119125641Y-72218099D01*
X119105073Y-72238667D01*
X119102356Y-72242170D01*
X119094648Y-72251195D01*
X119063028Y-72284867D01*
X119059207Y-72291818D01*
X119059206Y-72291819D01*
X119052697Y-72303658D01*
X119041843Y-72320182D01*
X119034018Y-72330271D01*
X119028696Y-72337132D01*
X119025549Y-72344404D01*
X119025548Y-72344406D01*
X119010346Y-72379535D01*
X119005124Y-72390195D01*
X118982876Y-72430663D01*
X118977541Y-72451441D01*
X118971142Y-72470131D01*
X118962620Y-72489824D01*
X118957996Y-72519020D01*
X118955394Y-72535448D01*
X118952987Y-72547071D01*
X118941500Y-72591812D01*
X118941500Y-72613259D01*
X118939949Y-72632969D01*
X118936594Y-72654152D01*
X118939103Y-72680689D01*
X118940941Y-72700138D01*
X118941500Y-72711996D01*
X118941500Y-77625050D01*
X118921498Y-77693171D01*
X118904595Y-77714145D01*
X118214145Y-78404595D01*
X118151833Y-78438621D01*
X118125050Y-78441500D01*
X117724867Y-78441500D01*
X117656746Y-78421498D01*
X117610253Y-78367842D01*
X117600149Y-78297568D01*
X117629643Y-78232988D01*
X117673618Y-78200393D01*
X117800722Y-78143803D01*
X117800724Y-78143802D01*
X117806752Y-78141118D01*
X117814931Y-78135176D01*
X117891242Y-78079732D01*
X117961253Y-78028866D01*
X117971461Y-78017529D01*
X118084621Y-77891852D01*
X118084622Y-77891851D01*
X118089040Y-77886944D01*
X118184527Y-77721556D01*
X118243542Y-77539928D01*
X118249163Y-77486453D01*
X118262814Y-77356565D01*
X118263504Y-77350000D01*
X118262814Y-77343435D01*
X118244232Y-77166635D01*
X118244232Y-77166633D01*
X118243542Y-77160072D01*
X118184527Y-76978444D01*
X118169174Y-76951851D01*
X118092341Y-76818774D01*
X118089040Y-76813056D01*
X118040864Y-76759551D01*
X118010146Y-76695544D01*
X118008500Y-76675241D01*
X118008500Y-75382059D01*
X118009059Y-75370203D01*
X118010789Y-75362463D01*
X118008562Y-75291611D01*
X118008500Y-75287653D01*
X118008500Y-75258568D01*
X118007946Y-75254179D01*
X118007013Y-75242337D01*
X118006962Y-75240689D01*
X118005562Y-75196169D01*
X117999580Y-75175579D01*
X117995570Y-75156216D01*
X117993875Y-75142796D01*
X117993875Y-75142795D01*
X117992882Y-75134936D01*
X117989966Y-75127571D01*
X117989965Y-75127567D01*
X117975874Y-75091979D01*
X117972035Y-75080769D01*
X117959145Y-75036400D01*
X117948225Y-75017935D01*
X117939534Y-75000195D01*
X117931635Y-74980244D01*
X117904482Y-74942871D01*
X117897967Y-74932952D01*
X117878493Y-74900023D01*
X117878490Y-74900019D01*
X117874453Y-74893193D01*
X117859289Y-74878029D01*
X117846448Y-74862995D01*
X117838501Y-74852057D01*
X117833841Y-74845643D01*
X117798247Y-74816197D01*
X117789468Y-74808208D01*
X115023655Y-72042395D01*
X115015665Y-72033615D01*
X115015663Y-72033613D01*
X115011416Y-72026920D01*
X114959742Y-71978395D01*
X114956901Y-71975641D01*
X114936333Y-71955073D01*
X114932826Y-71952353D01*
X114923804Y-71944647D01*
X114895913Y-71918456D01*
X114890133Y-71913028D01*
X114883181Y-71909206D01*
X114871342Y-71902697D01*
X114854818Y-71891843D01*
X114844132Y-71883555D01*
X114837868Y-71878696D01*
X114830596Y-71875549D01*
X114830594Y-71875548D01*
X114795465Y-71860346D01*
X114784805Y-71855124D01*
X114751284Y-71836695D01*
X114751282Y-71836694D01*
X114744337Y-71832876D01*
X114723559Y-71827541D01*
X114704869Y-71821142D01*
X114685176Y-71812620D01*
X114639552Y-71805394D01*
X114627929Y-71802987D01*
X114599928Y-71795798D01*
X114583188Y-71791500D01*
X114561741Y-71791500D01*
X114542031Y-71789949D01*
X114528677Y-71787834D01*
X114520848Y-71786594D01*
X114474859Y-71790941D01*
X114463004Y-71791500D01*
X112124950Y-71791500D01*
X112056829Y-71771498D01*
X112035855Y-71754595D01*
X111753655Y-71472395D01*
X111745665Y-71463615D01*
X111745663Y-71463613D01*
X111741416Y-71456920D01*
X111689742Y-71408395D01*
X111686901Y-71405641D01*
X111666333Y-71385073D01*
X111662826Y-71382353D01*
X111653804Y-71374647D01*
X111650471Y-71371517D01*
X111620133Y-71343028D01*
X111613181Y-71339206D01*
X111601342Y-71332697D01*
X111584818Y-71321843D01*
X111574132Y-71313555D01*
X111567868Y-71308696D01*
X111560596Y-71305549D01*
X111560594Y-71305548D01*
X111525465Y-71290346D01*
X111514805Y-71285124D01*
X111481284Y-71266695D01*
X111481282Y-71266694D01*
X111474337Y-71262876D01*
X111453559Y-71257541D01*
X111434869Y-71251142D01*
X111415176Y-71242620D01*
X111369552Y-71235394D01*
X111357929Y-71232987D01*
X111329928Y-71225798D01*
X111313188Y-71221500D01*
X111291741Y-71221500D01*
X111272031Y-71219949D01*
X111258677Y-71217834D01*
X111250848Y-71216594D01*
X111204859Y-71220941D01*
X111193004Y-71221500D01*
X110210632Y-71221500D01*
X110142511Y-71201498D01*
X110104840Y-71163940D01*
X110032822Y-71052617D01*
X110032820Y-71052614D01*
X110030014Y-71048277D01*
X109879670Y-70883051D01*
X109875619Y-70879852D01*
X109875615Y-70879848D01*
X109708414Y-70747800D01*
X109708410Y-70747798D01*
X109704359Y-70744598D01*
X109508789Y-70636638D01*
X109503920Y-70634914D01*
X109503916Y-70634912D01*
X109303087Y-70563795D01*
X109303083Y-70563794D01*
X109298212Y-70562069D01*
X109293119Y-70561162D01*
X109293116Y-70561161D01*
X109083373Y-70523800D01*
X109083367Y-70523799D01*
X109078284Y-70522894D01*
X109004452Y-70521992D01*
X108860081Y-70520228D01*
X108860079Y-70520228D01*
X108854911Y-70520165D01*
X108634091Y-70553955D01*
X108421756Y-70623357D01*
X108223607Y-70726507D01*
X108219474Y-70729610D01*
X108219471Y-70729612D01*
X108109746Y-70811996D01*
X108044965Y-70860635D01*
X107890629Y-71022138D01*
X107887715Y-71026410D01*
X107887714Y-71026411D01*
X107850619Y-71080790D01*
X107764743Y-71206680D01*
X107746599Y-71245769D01*
X107680633Y-71387881D01*
X107670688Y-71409305D01*
X107610989Y-71624570D01*
X107587251Y-71846695D01*
X107587548Y-71851848D01*
X107587548Y-71851851D01*
X107598153Y-72035776D01*
X107600110Y-72069715D01*
X107601247Y-72074761D01*
X107601248Y-72074767D01*
X107617381Y-72146350D01*
X107649222Y-72287639D01*
X107733266Y-72494616D01*
X107735965Y-72499020D01*
X107818049Y-72632969D01*
X107849987Y-72685088D01*
X107996250Y-72853938D01*
X108168126Y-72996632D01*
X108238595Y-73037811D01*
X108241445Y-73039476D01*
X108290169Y-73091114D01*
X108303240Y-73160897D01*
X108276509Y-73226669D01*
X108236055Y-73260027D01*
X108223607Y-73266507D01*
X108219474Y-73269610D01*
X108219471Y-73269612D01*
X108049100Y-73397530D01*
X108044965Y-73400635D01*
X107890629Y-73562138D01*
X107887715Y-73566410D01*
X107887714Y-73566411D01*
X107802556Y-73691249D01*
X107764743Y-73746680D01*
X107742278Y-73795077D01*
X107680633Y-73927881D01*
X107670688Y-73949305D01*
X107610989Y-74164570D01*
X107587251Y-74386695D01*
X107587548Y-74391848D01*
X107587548Y-74391851D01*
X107595094Y-74522721D01*
X107600110Y-74609715D01*
X107601247Y-74614761D01*
X107601248Y-74614767D01*
X107614854Y-74675138D01*
X107649222Y-74827639D01*
X107733266Y-75034616D01*
X107735965Y-75039020D01*
X107827600Y-75188555D01*
X107849987Y-75225088D01*
X107996250Y-75393938D01*
X108133163Y-75507605D01*
X108151803Y-75523080D01*
X108168126Y-75536632D01*
X108206819Y-75559242D01*
X108241445Y-75579476D01*
X108290169Y-75631114D01*
X108303240Y-75700897D01*
X108276509Y-75766669D01*
X108236055Y-75800027D01*
X108223607Y-75806507D01*
X108219474Y-75809610D01*
X108219471Y-75809612D01*
X108064397Y-75926045D01*
X108044965Y-75940635D01*
X107890629Y-76102138D01*
X107887715Y-76106410D01*
X107887714Y-76106411D01*
X107855392Y-76153794D01*
X107764743Y-76286680D01*
X107670688Y-76489305D01*
X107610989Y-76704570D01*
X107587251Y-76926695D01*
X107587548Y-76931848D01*
X107587548Y-76931851D01*
X107595600Y-77071498D01*
X107600110Y-77149715D01*
X107601247Y-77154761D01*
X107601248Y-77154767D01*
X107606681Y-77178873D01*
X107649222Y-77367639D01*
X107733266Y-77574616D01*
X107735965Y-77579020D01*
X107826818Y-77727279D01*
X107849987Y-77765088D01*
X107996250Y-77933938D01*
X108168126Y-78076632D01*
X108202352Y-78096632D01*
X108241445Y-78119476D01*
X108290169Y-78171114D01*
X108303240Y-78240897D01*
X108276509Y-78306669D01*
X108236055Y-78340027D01*
X108223607Y-78346507D01*
X108219474Y-78349610D01*
X108219471Y-78349612D01*
X108049100Y-78477530D01*
X108044965Y-78480635D01*
X108021608Y-78505077D01*
X107912454Y-78619300D01*
X107890629Y-78642138D01*
X107887715Y-78646410D01*
X107887714Y-78646411D01*
X107802556Y-78771249D01*
X107764743Y-78826680D01*
X107670688Y-79029305D01*
X107610989Y-79244570D01*
X107587251Y-79466695D01*
X107587548Y-79471848D01*
X107587548Y-79471851D01*
X107596347Y-79624453D01*
X107600110Y-79689715D01*
X107601247Y-79694761D01*
X107601248Y-79694767D01*
X107616071Y-79760539D01*
X107649222Y-79907639D01*
X107733266Y-80114616D01*
X107849987Y-80305088D01*
X107996250Y-80473938D01*
X108168126Y-80616632D01*
X108202352Y-80636632D01*
X108241445Y-80659476D01*
X108290169Y-80711114D01*
X108303240Y-80780897D01*
X108276509Y-80846669D01*
X108236055Y-80880027D01*
X108223607Y-80886507D01*
X108219474Y-80889610D01*
X108219471Y-80889612D01*
X108077179Y-80996448D01*
X108044965Y-81020635D01*
X108018846Y-81047967D01*
X107911032Y-81160788D01*
X107890629Y-81182138D01*
X107887715Y-81186410D01*
X107887714Y-81186411D01*
X107847376Y-81245544D01*
X107764743Y-81366680D01*
X107749003Y-81400590D01*
X107686738Y-81534729D01*
X107670688Y-81569305D01*
X107610989Y-81784570D01*
X107587251Y-82006695D01*
X107587548Y-82011848D01*
X107587548Y-82011851D01*
X107593011Y-82106590D01*
X107600110Y-82229715D01*
X107601247Y-82234761D01*
X107601248Y-82234767D01*
X107608123Y-82265271D01*
X107649222Y-82447639D01*
X107733266Y-82654616D01*
X107849987Y-82845088D01*
X107996250Y-83013938D01*
X108168126Y-83156632D01*
X108202352Y-83176632D01*
X108241445Y-83199476D01*
X108290169Y-83251114D01*
X108303240Y-83320897D01*
X108276509Y-83386669D01*
X108236055Y-83420027D01*
X108223607Y-83426507D01*
X108219474Y-83429610D01*
X108219471Y-83429612D01*
X108049100Y-83557530D01*
X108044965Y-83560635D01*
X107890629Y-83722138D01*
X107887715Y-83726410D01*
X107887714Y-83726411D01*
X107802556Y-83851249D01*
X107764743Y-83906680D01*
X107670688Y-84109305D01*
X107610989Y-84324570D01*
X107587251Y-84546695D01*
X87458774Y-84546695D01*
X87444852Y-84377361D01*
X87390431Y-84160702D01*
X87301354Y-83955840D01*
X87180014Y-83768277D01*
X87029670Y-83603051D01*
X87025619Y-83599852D01*
X87025615Y-83599848D01*
X86858414Y-83467800D01*
X86858410Y-83467798D01*
X86854359Y-83464598D01*
X86813053Y-83441796D01*
X86763084Y-83391364D01*
X86748312Y-83321921D01*
X86773428Y-83255516D01*
X86800780Y-83228909D01*
X86844603Y-83197650D01*
X86979860Y-83101173D01*
X87138096Y-82943489D01*
X87152468Y-82923489D01*
X87265435Y-82766277D01*
X87268453Y-82762077D01*
X87280631Y-82737438D01*
X87365136Y-82566453D01*
X87365137Y-82566451D01*
X87367430Y-82561811D01*
X87432370Y-82348069D01*
X87461529Y-82126590D01*
X87462100Y-82103240D01*
X87463074Y-82063365D01*
X87463074Y-82063361D01*
X87463156Y-82060000D01*
X87444852Y-81837361D01*
X87390431Y-81620702D01*
X87301354Y-81415840D01*
X87232593Y-81309551D01*
X87182822Y-81232617D01*
X87182820Y-81232614D01*
X87180014Y-81228277D01*
X87029670Y-81063051D01*
X87025619Y-81059852D01*
X87025615Y-81059848D01*
X86858414Y-80927800D01*
X86858410Y-80927798D01*
X86854359Y-80924598D01*
X86813053Y-80901796D01*
X86763084Y-80851364D01*
X86748312Y-80781921D01*
X86773428Y-80715516D01*
X86800780Y-80688909D01*
X86844603Y-80657650D01*
X86979860Y-80561173D01*
X87138096Y-80403489D01*
X87197594Y-80320689D01*
X87265435Y-80226277D01*
X87268453Y-80222077D01*
X87367430Y-80021811D01*
X87432370Y-79808069D01*
X87461529Y-79586590D01*
X87461611Y-79583240D01*
X87463074Y-79523365D01*
X87463074Y-79523361D01*
X87463156Y-79520000D01*
X87444852Y-79297361D01*
X87390431Y-79080702D01*
X87301354Y-78875840D01*
X87180014Y-78688277D01*
X87029670Y-78523051D01*
X87025619Y-78519852D01*
X87025615Y-78519848D01*
X86858414Y-78387800D01*
X86858410Y-78387798D01*
X86854359Y-78384598D01*
X86813053Y-78361796D01*
X86763084Y-78311364D01*
X86748312Y-78241921D01*
X86773428Y-78175516D01*
X86800780Y-78148909D01*
X86844603Y-78117650D01*
X86979860Y-78021173D01*
X87138096Y-77863489D01*
X87145066Y-77853790D01*
X87265435Y-77686277D01*
X87268453Y-77682077D01*
X87296638Y-77625050D01*
X87365136Y-77486453D01*
X87365137Y-77486451D01*
X87367430Y-77481811D01*
X87432370Y-77268069D01*
X87461529Y-77046590D01*
X87462082Y-77023955D01*
X87463074Y-76983365D01*
X87463074Y-76983361D01*
X87463156Y-76980000D01*
X87444852Y-76757361D01*
X87390431Y-76540702D01*
X87301354Y-76335840D01*
X87235942Y-76234729D01*
X87182822Y-76152617D01*
X87182820Y-76152614D01*
X87180014Y-76148277D01*
X87029670Y-75983051D01*
X87025619Y-75979852D01*
X87025615Y-75979848D01*
X86858414Y-75847800D01*
X86858410Y-75847798D01*
X86854359Y-75844598D01*
X86813053Y-75821796D01*
X86763084Y-75771364D01*
X86748312Y-75701921D01*
X86773428Y-75635516D01*
X86800780Y-75608909D01*
X86865474Y-75562763D01*
X86979860Y-75481173D01*
X87138096Y-75323489D01*
X87152468Y-75303489D01*
X87265435Y-75146277D01*
X87268453Y-75142077D01*
X87271983Y-75134936D01*
X87365136Y-74946453D01*
X87365137Y-74946451D01*
X87367430Y-74941811D01*
X87432370Y-74728069D01*
X87461529Y-74506590D01*
X87462358Y-74472655D01*
X87463074Y-74443365D01*
X87463074Y-74443361D01*
X87463156Y-74440000D01*
X87444852Y-74217361D01*
X87390431Y-74000702D01*
X87301354Y-73795840D01*
X87238368Y-73698478D01*
X87182822Y-73612617D01*
X87182820Y-73612614D01*
X87180014Y-73608277D01*
X87029670Y-73443051D01*
X87025619Y-73439852D01*
X87025615Y-73439848D01*
X86858414Y-73307800D01*
X86858410Y-73307798D01*
X86854359Y-73304598D01*
X86813053Y-73281796D01*
X86763084Y-73231364D01*
X86748312Y-73161921D01*
X86773428Y-73095516D01*
X86800780Y-73068909D01*
X86867520Y-73021304D01*
X86979860Y-72941173D01*
X87138096Y-72783489D01*
X87152468Y-72763489D01*
X87265435Y-72606277D01*
X87268453Y-72602077D01*
X87273527Y-72591812D01*
X87365136Y-72406453D01*
X87365137Y-72406451D01*
X87367430Y-72401811D01*
X87404717Y-72279087D01*
X87430865Y-72193023D01*
X87430865Y-72193021D01*
X87432370Y-72188069D01*
X87461529Y-71966590D01*
X87461742Y-71957881D01*
X87463074Y-71903365D01*
X87463074Y-71903361D01*
X87463156Y-71900000D01*
X87444852Y-71677361D01*
X87390431Y-71460702D01*
X87301354Y-71255840D01*
X87233441Y-71150862D01*
X87182822Y-71072617D01*
X87182820Y-71072614D01*
X87180014Y-71068277D01*
X87029670Y-70903051D01*
X87025619Y-70899852D01*
X87025615Y-70899848D01*
X86858414Y-70767800D01*
X86858410Y-70767798D01*
X86854359Y-70764598D01*
X86813053Y-70741796D01*
X86763084Y-70691364D01*
X86748312Y-70621921D01*
X86773428Y-70555516D01*
X86800780Y-70528909D01*
X86870000Y-70479535D01*
X86979860Y-70401173D01*
X87001781Y-70379329D01*
X87066077Y-70315257D01*
X87138096Y-70243489D01*
X87197594Y-70160689D01*
X87265435Y-70066277D01*
X87268453Y-70062077D01*
X87367430Y-69861811D01*
X87432370Y-69648069D01*
X87461529Y-69426590D01*
X87462679Y-69379521D01*
X87463074Y-69363365D01*
X87463074Y-69363361D01*
X87463156Y-69360000D01*
X87444852Y-69137361D01*
X87390431Y-68920702D01*
X87301354Y-68715840D01*
X87180014Y-68528277D01*
X87029670Y-68363051D01*
X87025619Y-68359852D01*
X87025615Y-68359848D01*
X86858414Y-68227800D01*
X86858410Y-68227798D01*
X86854359Y-68224598D01*
X86813053Y-68201796D01*
X86763084Y-68151364D01*
X86748312Y-68081921D01*
X86773428Y-68015516D01*
X86800780Y-67988909D01*
X86858518Y-67947725D01*
X86979860Y-67861173D01*
X87047079Y-67794189D01*
X87067400Y-67773938D01*
X87138096Y-67703489D01*
X87152468Y-67683489D01*
X87265435Y-67526277D01*
X87268453Y-67522077D01*
X87277064Y-67504655D01*
X87365136Y-67326453D01*
X87365137Y-67326451D01*
X87367430Y-67321811D01*
X87432370Y-67108069D01*
X87461529Y-66886590D01*
X87463156Y-66820000D01*
X87458774Y-66766695D01*
X107587251Y-66766695D01*
X107587548Y-66771848D01*
X107587548Y-66771851D01*
X107593011Y-66866590D01*
X107600110Y-66989715D01*
X107601247Y-66994761D01*
X107601248Y-66994767D01*
X107621119Y-67082939D01*
X107649222Y-67207639D01*
X107695582Y-67321811D01*
X107726054Y-67396854D01*
X107733266Y-67414616D01*
X107849987Y-67605088D01*
X107996250Y-67773938D01*
X108168126Y-67916632D01*
X108361000Y-68029338D01*
X108569692Y-68109030D01*
X108574760Y-68110061D01*
X108574763Y-68110062D01*
X108682017Y-68131883D01*
X108788597Y-68153567D01*
X108793772Y-68153757D01*
X108793774Y-68153757D01*
X109006673Y-68161564D01*
X109006677Y-68161564D01*
X109011837Y-68161753D01*
X109016957Y-68161097D01*
X109016959Y-68161097D01*
X109228288Y-68134025D01*
X109228289Y-68134025D01*
X109233416Y-68133368D01*
X109289180Y-68116638D01*
X109442429Y-68070661D01*
X109442434Y-68070659D01*
X109447384Y-68069174D01*
X109647994Y-67970896D01*
X109829860Y-67841173D01*
X109877009Y-67794189D01*
X109968026Y-67703489D01*
X109988096Y-67683489D01*
X110011067Y-67651522D01*
X110115435Y-67506277D01*
X110118453Y-67502077D01*
X110123519Y-67491828D01*
X110215136Y-67306453D01*
X110215137Y-67306451D01*
X110217430Y-67301811D01*
X110276294Y-67108069D01*
X110280865Y-67093023D01*
X110280865Y-67093021D01*
X110282370Y-67088069D01*
X110311529Y-66866590D01*
X110312585Y-66823365D01*
X110313074Y-66803365D01*
X110313074Y-66803361D01*
X110313156Y-66800000D01*
X110294852Y-66577361D01*
X110240431Y-66360702D01*
X110151354Y-66155840D01*
X110111906Y-66094862D01*
X110032822Y-65972617D01*
X110032820Y-65972614D01*
X110030014Y-65968277D01*
X109879670Y-65803051D01*
X109875619Y-65799852D01*
X109875615Y-65799848D01*
X109708414Y-65667800D01*
X109708410Y-65667798D01*
X109704359Y-65664598D01*
X109663053Y-65641796D01*
X109613084Y-65591364D01*
X109598312Y-65521921D01*
X109623428Y-65455516D01*
X109650780Y-65428909D01*
X109700664Y-65393327D01*
X109829860Y-65301173D01*
X109988096Y-65143489D01*
X110047594Y-65060689D01*
X110115435Y-64966277D01*
X110118453Y-64962077D01*
X110207546Y-64781811D01*
X110215136Y-64766453D01*
X110215137Y-64766451D01*
X110217430Y-64761811D01*
X110282370Y-64548069D01*
X110311529Y-64326590D01*
X110312585Y-64283365D01*
X110313074Y-64263365D01*
X110313074Y-64263361D01*
X110313156Y-64260000D01*
X110294852Y-64037361D01*
X110240431Y-63820702D01*
X110151354Y-63615840D01*
X110100332Y-63536972D01*
X110032822Y-63432617D01*
X110032820Y-63432614D01*
X110030014Y-63428277D01*
X109879670Y-63263051D01*
X109875619Y-63259852D01*
X109875615Y-63259848D01*
X109708414Y-63127800D01*
X109708410Y-63127798D01*
X109704359Y-63124598D01*
X109663053Y-63101796D01*
X109613084Y-63051364D01*
X109598312Y-62981921D01*
X109623428Y-62915516D01*
X109650780Y-62888909D01*
X109700664Y-62853327D01*
X109829860Y-62761173D01*
X109988096Y-62603489D01*
X110047594Y-62520689D01*
X110115435Y-62426277D01*
X110118453Y-62422077D01*
X110158277Y-62341500D01*
X110215136Y-62226453D01*
X110215137Y-62226451D01*
X110217430Y-62221811D01*
X110252298Y-62107047D01*
X110280865Y-62013023D01*
X110280865Y-62013021D01*
X110282370Y-62008069D01*
X110311529Y-61786590D01*
X110312585Y-61743365D01*
X110313074Y-61723365D01*
X110313074Y-61723361D01*
X110313156Y-61720000D01*
X110294852Y-61497361D01*
X110240431Y-61280702D01*
X110151354Y-61075840D01*
X110111906Y-61014862D01*
X110032822Y-60892617D01*
X110032820Y-60892614D01*
X110030014Y-60888277D01*
X109879670Y-60723051D01*
X109875619Y-60719852D01*
X109875615Y-60719848D01*
X109708414Y-60587800D01*
X109708410Y-60587798D01*
X109704359Y-60584598D01*
X109663053Y-60561796D01*
X109613084Y-60511364D01*
X109598312Y-60441921D01*
X109623428Y-60375516D01*
X109650780Y-60348909D01*
X109700664Y-60313327D01*
X109829860Y-60221173D01*
X109988096Y-60063489D01*
X110047594Y-59980689D01*
X110112060Y-59890974D01*
X110168055Y-59847326D01*
X110214383Y-59838500D01*
X119805050Y-59838500D01*
X119873171Y-59858502D01*
X119894145Y-59875405D01*
X123426345Y-63407605D01*
X123434335Y-63416385D01*
X123438584Y-63423080D01*
X123444362Y-63428506D01*
X123444363Y-63428507D01*
X123490257Y-63471604D01*
X123493099Y-63474359D01*
X123513667Y-63494927D01*
X123517170Y-63497644D01*
X123526195Y-63505352D01*
X123559867Y-63536972D01*
X123566818Y-63540793D01*
X123566819Y-63540794D01*
X123578658Y-63547303D01*
X123595182Y-63558157D01*
X123605271Y-63565982D01*
X123612132Y-63571304D01*
X123619404Y-63574451D01*
X123619406Y-63574452D01*
X123654535Y-63589654D01*
X123665195Y-63594876D01*
X123695419Y-63611492D01*
X123705663Y-63617124D01*
X123726441Y-63622459D01*
X123745131Y-63628858D01*
X123764824Y-63637380D01*
X123799563Y-63642882D01*
X123810448Y-63644606D01*
X123822071Y-63647013D01*
X123846754Y-63653350D01*
X123866812Y-63658500D01*
X123888259Y-63658500D01*
X123907969Y-63660051D01*
X123929152Y-63663406D01*
X123975141Y-63659059D01*
X123986996Y-63658500D01*
X130647944Y-63658500D01*
X130659800Y-63659059D01*
X130659803Y-63659059D01*
X130667537Y-63660788D01*
X130738369Y-63658562D01*
X130742327Y-63658500D01*
X130771432Y-63658500D01*
X130775832Y-63657944D01*
X130787664Y-63657012D01*
X130833831Y-63655562D01*
X130854421Y-63649580D01*
X130873782Y-63645570D01*
X130881416Y-63644606D01*
X130887204Y-63643875D01*
X130887205Y-63643875D01*
X130895064Y-63642882D01*
X130902429Y-63639966D01*
X130902433Y-63639965D01*
X130938021Y-63625874D01*
X130949231Y-63622035D01*
X130993600Y-63609145D01*
X131012065Y-63598225D01*
X131029805Y-63589534D01*
X131049756Y-63581635D01*
X131087129Y-63554482D01*
X131097048Y-63547967D01*
X131129977Y-63528493D01*
X131129981Y-63528490D01*
X131136807Y-63524453D01*
X131151971Y-63509289D01*
X131167005Y-63496448D01*
X131184357Y-63483841D01*
X131213803Y-63448247D01*
X131221792Y-63439468D01*
X135078928Y-59582332D01*
X135141240Y-59548306D01*
X135193140Y-59547956D01*
X135343597Y-59578567D01*
X135348772Y-59578757D01*
X135348774Y-59578757D01*
X135561673Y-59586564D01*
X135561677Y-59586564D01*
X135566837Y-59586753D01*
X135571957Y-59586097D01*
X135571959Y-59586097D01*
X135783288Y-59559025D01*
X135783289Y-59559025D01*
X135788416Y-59558368D01*
X135821951Y-59548307D01*
X135997429Y-59495661D01*
X135997434Y-59495659D01*
X136002384Y-59494174D01*
X136202994Y-59395896D01*
X136384860Y-59266173D01*
X136543096Y-59108489D01*
X136602594Y-59025689D01*
X136673453Y-58927077D01*
X136674776Y-58928028D01*
X136721645Y-58884857D01*
X136791580Y-58872625D01*
X136857026Y-58900144D01*
X136884875Y-58931994D01*
X136944987Y-59030088D01*
X137091250Y-59198938D01*
X137263126Y-59341632D01*
X137299072Y-59362637D01*
X137347794Y-59414275D01*
X137361500Y-59471424D01*
X137361500Y-62519695D01*
X137341498Y-62587816D01*
X137324595Y-62608790D01*
X133777050Y-66156335D01*
X133714738Y-66190361D01*
X133707654Y-66191500D01*
X133704513Y-66191500D01*
X133698060Y-66192872D01*
X133698057Y-66192872D01*
X133635487Y-66206172D01*
X133517712Y-66231206D01*
X133511682Y-66233891D01*
X133511681Y-66233891D01*
X133349278Y-66306197D01*
X133349276Y-66306198D01*
X133343248Y-66308882D01*
X133188747Y-66421134D01*
X133184326Y-66426044D01*
X133184325Y-66426045D01*
X133082091Y-66539588D01*
X133060960Y-66563056D01*
X132965473Y-66728444D01*
X132906458Y-66910072D01*
X132886496Y-67100000D01*
X132887186Y-67106565D01*
X132902721Y-67254368D01*
X132906458Y-67289928D01*
X132965473Y-67471556D01*
X132968776Y-67477278D01*
X132968777Y-67477279D01*
X132984417Y-67504368D01*
X133060960Y-67636944D01*
X133065378Y-67641851D01*
X133065379Y-67641852D01*
X133178229Y-67767185D01*
X133188747Y-67778866D01*
X133251042Y-67824126D01*
X133301068Y-67860472D01*
X133343248Y-67891118D01*
X133349276Y-67893802D01*
X133349278Y-67893803D01*
X133501327Y-67961499D01*
X133517712Y-67968794D01*
X133611112Y-67988647D01*
X133698056Y-68007128D01*
X133698061Y-68007128D01*
X133704513Y-68008500D01*
X133895487Y-68008500D01*
X133901939Y-68007128D01*
X133901944Y-68007128D01*
X133988888Y-67988647D01*
X134082288Y-67968794D01*
X134098673Y-67961499D01*
X134250722Y-67893803D01*
X134250724Y-67893802D01*
X134256752Y-67891118D01*
X134298933Y-67860472D01*
X134348958Y-67824126D01*
X134411253Y-67778866D01*
X134421771Y-67767185D01*
X134534621Y-67641852D01*
X134534622Y-67641851D01*
X134539040Y-67636944D01*
X134615583Y-67504368D01*
X134631223Y-67477279D01*
X134631224Y-67477278D01*
X134634527Y-67471556D01*
X134693542Y-67289928D01*
X134702602Y-67203722D01*
X134729615Y-67138066D01*
X134738817Y-67127798D01*
X138508459Y-63358156D01*
X138514724Y-63352302D01*
X138556670Y-63315710D01*
X138592066Y-63265348D01*
X138595976Y-63260083D01*
X138613660Y-63237530D01*
X138633935Y-63211671D01*
X138637062Y-63204746D01*
X138639683Y-63200418D01*
X138645046Y-63191017D01*
X138647428Y-63186575D01*
X138651795Y-63180361D01*
X138665739Y-63144598D01*
X138674142Y-63123044D01*
X138676698Y-63116963D01*
X138698889Y-63067816D01*
X138702014Y-63060895D01*
X138703399Y-63053423D01*
X138704903Y-63048622D01*
X138707878Y-63038182D01*
X138709131Y-63033302D01*
X138711889Y-63026228D01*
X138713789Y-63011797D01*
X138719921Y-62965223D01*
X138720953Y-62958710D01*
X138730777Y-62905701D01*
X138730777Y-62905699D01*
X138732161Y-62898232D01*
X138731624Y-62888909D01*
X138728709Y-62838357D01*
X138728500Y-62831105D01*
X138728500Y-59471129D01*
X138748502Y-59403008D01*
X138781332Y-59368550D01*
X138836932Y-59328891D01*
X138924860Y-59266173D01*
X139068400Y-59123134D01*
X141766500Y-59123134D01*
X141773255Y-59185316D01*
X141824385Y-59321705D01*
X141911739Y-59438261D01*
X142028295Y-59525615D01*
X142164684Y-59576745D01*
X142226866Y-59583500D01*
X144023134Y-59583500D01*
X144085316Y-59576745D01*
X144221705Y-59525615D01*
X144338261Y-59438261D01*
X144425615Y-59321705D01*
X144476745Y-59185316D01*
X144483500Y-59123134D01*
X144483500Y-57326866D01*
X144476745Y-57264684D01*
X144425615Y-57128295D01*
X144338261Y-57011739D01*
X144221705Y-56924385D01*
X144085316Y-56873255D01*
X144023134Y-56866500D01*
X142226866Y-56866500D01*
X142164684Y-56873255D01*
X142028295Y-56924385D01*
X141911739Y-57011739D01*
X141824385Y-57128295D01*
X141773255Y-57264684D01*
X141766500Y-57326866D01*
X141766500Y-59123134D01*
X139068400Y-59123134D01*
X139083096Y-59108489D01*
X139142594Y-59025689D01*
X139210435Y-58931277D01*
X139213453Y-58927077D01*
X139217155Y-58919588D01*
X139310136Y-58731453D01*
X139310137Y-58731451D01*
X139312430Y-58726811D01*
X139361077Y-58566695D01*
X139375865Y-58518023D01*
X139375865Y-58518021D01*
X139377370Y-58513069D01*
X139406529Y-58291590D01*
X139408156Y-58225000D01*
X139389852Y-58002361D01*
X139335431Y-57785702D01*
X139246354Y-57580840D01*
X139168625Y-57460689D01*
X139127822Y-57397617D01*
X139127820Y-57397614D01*
X139125014Y-57393277D01*
X138974670Y-57228051D01*
X138970619Y-57224852D01*
X138970615Y-57224848D01*
X138803414Y-57092800D01*
X138803410Y-57092798D01*
X138799359Y-57089598D01*
X138603789Y-56981638D01*
X138598920Y-56979914D01*
X138598916Y-56979912D01*
X138398087Y-56908795D01*
X138398083Y-56908794D01*
X138393212Y-56907069D01*
X138388119Y-56906162D01*
X138388116Y-56906161D01*
X138178373Y-56868800D01*
X138178367Y-56868799D01*
X138173284Y-56867894D01*
X138099452Y-56866992D01*
X137955081Y-56865228D01*
X137955079Y-56865228D01*
X137949911Y-56865165D01*
X137729091Y-56898955D01*
X137516756Y-56968357D01*
X137318607Y-57071507D01*
X137314474Y-57074610D01*
X137314471Y-57074612D01*
X137144100Y-57202530D01*
X137139965Y-57205635D01*
X137136393Y-57209373D01*
X136994899Y-57357438D01*
X136985629Y-57367138D01*
X136878201Y-57524621D01*
X136823293Y-57569621D01*
X136752768Y-57577792D01*
X136689021Y-57546538D01*
X136668324Y-57522054D01*
X136587822Y-57397617D01*
X136587820Y-57397614D01*
X136585014Y-57393277D01*
X136434670Y-57228051D01*
X136430619Y-57224852D01*
X136430615Y-57224848D01*
X136263414Y-57092800D01*
X136263410Y-57092798D01*
X136259359Y-57089598D01*
X136063789Y-56981638D01*
X136058920Y-56979914D01*
X136058916Y-56979912D01*
X135858087Y-56908795D01*
X135858083Y-56908794D01*
X135853212Y-56907069D01*
X135848119Y-56906162D01*
X135848116Y-56906161D01*
X135638373Y-56868800D01*
X135638367Y-56868799D01*
X135633284Y-56867894D01*
X135559452Y-56866992D01*
X135415081Y-56865228D01*
X135415079Y-56865228D01*
X135409911Y-56865165D01*
X135189091Y-56898955D01*
X134976756Y-56968357D01*
X134778607Y-57071507D01*
X134774474Y-57074610D01*
X134774471Y-57074612D01*
X134604100Y-57202530D01*
X134599965Y-57205635D01*
X134596393Y-57209373D01*
X134454899Y-57357438D01*
X134445629Y-57367138D01*
X134338201Y-57524621D01*
X134283293Y-57569621D01*
X134212768Y-57577792D01*
X134149021Y-57546538D01*
X134128324Y-57522054D01*
X134047822Y-57397617D01*
X134047820Y-57397614D01*
X134045014Y-57393277D01*
X133894670Y-57228051D01*
X133890619Y-57224852D01*
X133890615Y-57224848D01*
X133723414Y-57092800D01*
X133723410Y-57092798D01*
X133719359Y-57089598D01*
X133523789Y-56981638D01*
X133518920Y-56979914D01*
X133518916Y-56979912D01*
X133318087Y-56908795D01*
X133318083Y-56908794D01*
X133313212Y-56907069D01*
X133308119Y-56906162D01*
X133308116Y-56906161D01*
X133098373Y-56868800D01*
X133098367Y-56868799D01*
X133093284Y-56867894D01*
X133019452Y-56866992D01*
X132875081Y-56865228D01*
X132875079Y-56865228D01*
X132869911Y-56865165D01*
X132649091Y-56898955D01*
X132436756Y-56968357D01*
X132238607Y-57071507D01*
X132234474Y-57074610D01*
X132234471Y-57074612D01*
X132064100Y-57202530D01*
X132059965Y-57205635D01*
X132056393Y-57209373D01*
X131914899Y-57357438D01*
X131905629Y-57367138D01*
X131798201Y-57524621D01*
X131743293Y-57569621D01*
X131672768Y-57577792D01*
X131609021Y-57546538D01*
X131588324Y-57522054D01*
X131507822Y-57397617D01*
X131507820Y-57397614D01*
X131505014Y-57393277D01*
X131354670Y-57228051D01*
X131350619Y-57224852D01*
X131350615Y-57224848D01*
X131183414Y-57092800D01*
X131183410Y-57092798D01*
X131179359Y-57089598D01*
X130983789Y-56981638D01*
X130978920Y-56979914D01*
X130978916Y-56979912D01*
X130778087Y-56908795D01*
X130778083Y-56908794D01*
X130773212Y-56907069D01*
X130768119Y-56906162D01*
X130768116Y-56906161D01*
X130558373Y-56868800D01*
X130558367Y-56868799D01*
X130553284Y-56867894D01*
X130479452Y-56866992D01*
X130335081Y-56865228D01*
X130335079Y-56865228D01*
X130329911Y-56865165D01*
X130109091Y-56898955D01*
X130108837Y-56897295D01*
X130045370Y-56894013D01*
X130000812Y-56866962D01*
X129959743Y-56828396D01*
X129956901Y-56825641D01*
X129936333Y-56805073D01*
X129932826Y-56802353D01*
X129923804Y-56794647D01*
X129895913Y-56768456D01*
X129890133Y-56763028D01*
X129883181Y-56759206D01*
X129871342Y-56752697D01*
X129854818Y-56741843D01*
X129844132Y-56733555D01*
X129837868Y-56728696D01*
X129830596Y-56725549D01*
X129830594Y-56725548D01*
X129795465Y-56710346D01*
X129784805Y-56705124D01*
X129751284Y-56686695D01*
X129751282Y-56686694D01*
X129744337Y-56682876D01*
X129723559Y-56677541D01*
X129704869Y-56671142D01*
X129685176Y-56662620D01*
X129639552Y-56655394D01*
X129627929Y-56652987D01*
X129599928Y-56645798D01*
X129583188Y-56641500D01*
X129561741Y-56641500D01*
X129542031Y-56639949D01*
X129528677Y-56637834D01*
X129520848Y-56636594D01*
X129474859Y-56640941D01*
X129463004Y-56641500D01*
X124930224Y-56641500D01*
X124862103Y-56621498D01*
X124856163Y-56617436D01*
X124855909Y-56617251D01*
X124706752Y-56508882D01*
X124700724Y-56506198D01*
X124700722Y-56506197D01*
X124538319Y-56433891D01*
X124538318Y-56433891D01*
X124532288Y-56431206D01*
X124431144Y-56409707D01*
X124351944Y-56392872D01*
X124351939Y-56392872D01*
X124345487Y-56391500D01*
X124154513Y-56391500D01*
X124148061Y-56392872D01*
X124148056Y-56392872D01*
X124068856Y-56409707D01*
X123967712Y-56431206D01*
X123961682Y-56433891D01*
X123961681Y-56433891D01*
X123799278Y-56506197D01*
X123799276Y-56506198D01*
X123793248Y-56508882D01*
X123638747Y-56621134D01*
X123634326Y-56626044D01*
X123634325Y-56626045D01*
X123524589Y-56747920D01*
X123510960Y-56763056D01*
X123474010Y-56827055D01*
X123421281Y-56918385D01*
X123415473Y-56928444D01*
X123356458Y-57110072D01*
X123336496Y-57300000D01*
X123337186Y-57306565D01*
X123341854Y-57350974D01*
X123356458Y-57489928D01*
X123415473Y-57671556D01*
X123418776Y-57677278D01*
X123418777Y-57677279D01*
X123432572Y-57701173D01*
X123510960Y-57836944D01*
X123515378Y-57841851D01*
X123515379Y-57841852D01*
X123618733Y-57956638D01*
X123638747Y-57978866D01*
X123793248Y-58091118D01*
X123799276Y-58093802D01*
X123799278Y-58093803D01*
X123949386Y-58160635D01*
X123967712Y-58168794D01*
X124061113Y-58188647D01*
X124148056Y-58207128D01*
X124148061Y-58207128D01*
X124154513Y-58208500D01*
X124345487Y-58208500D01*
X124351939Y-58207128D01*
X124351944Y-58207128D01*
X124438887Y-58188647D01*
X124532288Y-58168794D01*
X124550614Y-58160635D01*
X124700722Y-58093803D01*
X124700724Y-58093802D01*
X124706752Y-58091118D01*
X124738847Y-58067800D01*
X124850513Y-57986669D01*
X124856163Y-57982564D01*
X124923031Y-57958706D01*
X124930224Y-57958500D01*
X128946989Y-57958500D01*
X129015110Y-57978502D01*
X129061603Y-58032158D01*
X129072276Y-58097888D01*
X129062251Y-58191695D01*
X129062548Y-58196848D01*
X129062548Y-58196851D01*
X129072212Y-58364457D01*
X129075110Y-58414715D01*
X129076247Y-58419761D01*
X129076248Y-58419767D01*
X129096119Y-58507939D01*
X129124222Y-58632639D01*
X129208266Y-58839616D01*
X129257273Y-58919588D01*
X129322291Y-59025688D01*
X129324987Y-59030088D01*
X129471250Y-59198938D01*
X129643126Y-59341632D01*
X129836000Y-59454338D01*
X130044692Y-59534030D01*
X130049760Y-59535061D01*
X130049763Y-59535062D01*
X130114860Y-59548306D01*
X130263597Y-59578567D01*
X130268771Y-59578757D01*
X130268773Y-59578757D01*
X130376545Y-59582709D01*
X130443887Y-59605194D01*
X130488382Y-59660517D01*
X130495904Y-59731114D01*
X130461022Y-59797719D01*
X129945413Y-60313327D01*
X129454145Y-60804595D01*
X129391833Y-60838621D01*
X129365050Y-60841500D01*
X125974950Y-60841500D01*
X125906829Y-60821498D01*
X125885855Y-60804595D01*
X121313655Y-56232395D01*
X121305665Y-56223615D01*
X121305663Y-56223613D01*
X121301416Y-56216920D01*
X121249742Y-56168395D01*
X121246901Y-56165641D01*
X121226333Y-56145073D01*
X121222826Y-56142353D01*
X121213804Y-56134647D01*
X121185913Y-56108456D01*
X121180133Y-56103028D01*
X121173181Y-56099206D01*
X121161342Y-56092697D01*
X121144818Y-56081843D01*
X121134132Y-56073555D01*
X121127868Y-56068696D01*
X121120596Y-56065549D01*
X121120594Y-56065548D01*
X121085465Y-56050346D01*
X121074805Y-56045124D01*
X121041284Y-56026695D01*
X121041282Y-56026694D01*
X121034337Y-56022876D01*
X121013559Y-56017541D01*
X120994869Y-56011142D01*
X120975176Y-56002620D01*
X120929552Y-55995394D01*
X120917929Y-55992987D01*
X120889928Y-55985798D01*
X120873188Y-55981500D01*
X120851741Y-55981500D01*
X120832031Y-55979949D01*
X120818677Y-55977834D01*
X120810848Y-55976594D01*
X120764859Y-55980941D01*
X120753004Y-55981500D01*
X110210632Y-55981500D01*
X110142511Y-55961498D01*
X110104840Y-55923940D01*
X110032822Y-55812617D01*
X110032820Y-55812614D01*
X110030014Y-55808277D01*
X110021028Y-55798401D01*
X109882798Y-55646488D01*
X109851746Y-55582642D01*
X109860141Y-55512143D01*
X109905317Y-55457375D01*
X109931761Y-55443706D01*
X110038297Y-55403767D01*
X110046705Y-55400615D01*
X110163261Y-55313261D01*
X110250615Y-55196705D01*
X110301745Y-55060316D01*
X110308500Y-54998134D01*
X110308500Y-54884500D01*
X110328502Y-54816379D01*
X110382158Y-54769886D01*
X110434500Y-54758500D01*
X119617944Y-54758500D01*
X119629800Y-54759059D01*
X119629803Y-54759059D01*
X119637537Y-54760788D01*
X119708369Y-54758562D01*
X119712327Y-54758500D01*
X119741432Y-54758500D01*
X119745832Y-54757944D01*
X119757664Y-54757012D01*
X119803831Y-54755562D01*
X119824421Y-54749580D01*
X119843782Y-54745570D01*
X119850770Y-54744688D01*
X119857204Y-54743875D01*
X119857205Y-54743875D01*
X119865064Y-54742882D01*
X119872429Y-54739966D01*
X119872433Y-54739965D01*
X119908021Y-54725874D01*
X119919231Y-54722035D01*
X119963600Y-54709145D01*
X119982065Y-54698225D01*
X119999805Y-54689534D01*
X120019756Y-54681635D01*
X120057129Y-54654482D01*
X120067048Y-54647967D01*
X120099977Y-54628493D01*
X120099981Y-54628490D01*
X120106807Y-54624453D01*
X120121971Y-54609289D01*
X120137005Y-54596448D01*
X120147943Y-54588501D01*
X120154357Y-54583841D01*
X120183803Y-54548247D01*
X120191792Y-54539468D01*
X123585855Y-51145405D01*
X123648167Y-51111379D01*
X123674950Y-51108500D01*
X129354143Y-51108500D01*
X129422264Y-51128502D01*
X129468757Y-51182158D01*
X129473666Y-51194622D01*
X129481130Y-51216995D01*
X129481133Y-51217002D01*
X129483450Y-51223946D01*
X129576522Y-51374348D01*
X129701697Y-51499305D01*
X129707927Y-51503145D01*
X129707928Y-51503146D01*
X129845090Y-51587694D01*
X129852262Y-51592115D01*
X129932005Y-51618564D01*
X130013611Y-51645632D01*
X130013613Y-51645632D01*
X130020139Y-51647797D01*
X130026975Y-51648497D01*
X130026978Y-51648498D01*
X130070031Y-51652909D01*
X130124600Y-51658500D01*
X130750400Y-51658500D01*
X130753646Y-51658163D01*
X130753650Y-51658163D01*
X130849308Y-51648238D01*
X130849312Y-51648237D01*
X130856166Y-51647526D01*
X130862702Y-51645345D01*
X130862704Y-51645345D01*
X130994806Y-51601272D01*
X131023946Y-51591550D01*
X131174348Y-51498478D01*
X131260784Y-51411891D01*
X131323066Y-51377812D01*
X131393886Y-51382815D01*
X131438976Y-51411736D01*
X131526697Y-51499305D01*
X131532927Y-51503145D01*
X131532928Y-51503146D01*
X131670090Y-51587694D01*
X131677262Y-51592115D01*
X131757005Y-51618564D01*
X131838611Y-51645632D01*
X131838613Y-51645632D01*
X131845139Y-51647797D01*
X131851975Y-51648497D01*
X131851978Y-51648498D01*
X131895031Y-51652909D01*
X131949600Y-51658500D01*
X132575400Y-51658500D01*
X132578646Y-51658163D01*
X132578650Y-51658163D01*
X132674308Y-51648238D01*
X132674312Y-51648237D01*
X132681166Y-51647526D01*
X132687702Y-51645345D01*
X132687704Y-51645345D01*
X132819806Y-51601272D01*
X132848946Y-51591550D01*
X132999348Y-51498478D01*
X133124305Y-51373303D01*
X133164250Y-51308500D01*
X133213275Y-51228968D01*
X133213276Y-51228966D01*
X133217115Y-51222738D01*
X133226372Y-51194830D01*
X133266803Y-51136472D01*
X133332367Y-51109236D01*
X133345964Y-51108500D01*
X135683694Y-51108500D01*
X135751815Y-51128502D01*
X135765702Y-51139683D01*
X135765771Y-51139596D01*
X135771517Y-51144134D01*
X135776697Y-51149305D01*
X135782927Y-51153145D01*
X135782928Y-51153146D01*
X135920090Y-51237694D01*
X135927262Y-51242115D01*
X136007005Y-51268564D01*
X136088611Y-51295632D01*
X136088613Y-51295632D01*
X136095139Y-51297797D01*
X136101975Y-51298497D01*
X136101978Y-51298498D01*
X136145031Y-51302909D01*
X136199600Y-51308500D01*
X136950400Y-51308500D01*
X136953646Y-51308163D01*
X136953650Y-51308163D01*
X137049308Y-51298238D01*
X137049312Y-51298237D01*
X137056166Y-51297526D01*
X137062702Y-51295345D01*
X137062704Y-51295345D01*
X137194806Y-51251272D01*
X137223946Y-51241550D01*
X137374348Y-51148478D01*
X137499305Y-51023303D01*
X137592115Y-50872738D01*
X137647797Y-50704861D01*
X137658500Y-50600400D01*
X137658500Y-49599600D01*
X137658163Y-49596350D01*
X137648238Y-49500692D01*
X137648237Y-49500688D01*
X137647526Y-49493834D01*
X137618178Y-49405866D01*
X137593868Y-49333002D01*
X137591550Y-49326054D01*
X137498478Y-49175652D01*
X137373303Y-49050695D01*
X137367072Y-49046854D01*
X137228968Y-48961725D01*
X137228966Y-48961724D01*
X137222738Y-48957885D01*
X137062254Y-48904655D01*
X137061389Y-48904368D01*
X137061387Y-48904368D01*
X137054861Y-48902203D01*
X137048025Y-48901503D01*
X137048022Y-48901502D01*
X137004969Y-48897091D01*
X136950400Y-48891500D01*
X136199600Y-48891500D01*
X136196354Y-48891837D01*
X136196350Y-48891837D01*
X136100692Y-48901762D01*
X136100688Y-48901763D01*
X136093834Y-48902474D01*
X136087298Y-48904655D01*
X136087296Y-48904655D01*
X135955194Y-48948728D01*
X135926054Y-48958450D01*
X135775652Y-49051522D01*
X135650695Y-49176697D01*
X135646855Y-49182927D01*
X135646854Y-49182928D01*
X135610548Y-49241828D01*
X135557885Y-49327262D01*
X135502203Y-49495139D01*
X135501503Y-49501975D01*
X135501502Y-49501978D01*
X135498331Y-49532928D01*
X135491500Y-49599600D01*
X135491500Y-49665500D01*
X135471498Y-49733621D01*
X135417842Y-49780114D01*
X135365500Y-49791500D01*
X133345857Y-49791500D01*
X133277736Y-49771498D01*
X133231243Y-49717842D01*
X133226334Y-49705378D01*
X133218870Y-49683005D01*
X133218867Y-49682998D01*
X133216550Y-49676054D01*
X133123478Y-49525652D01*
X133091605Y-49493834D01*
X133003483Y-49405866D01*
X132998303Y-49400695D01*
X132992072Y-49396854D01*
X132853968Y-49311725D01*
X132853966Y-49311724D01*
X132847738Y-49307885D01*
X132687254Y-49254655D01*
X132686389Y-49254368D01*
X132686387Y-49254368D01*
X132679861Y-49252203D01*
X132673025Y-49251503D01*
X132673022Y-49251502D01*
X132629969Y-49247091D01*
X132575400Y-49241500D01*
X131949600Y-49241500D01*
X131946354Y-49241837D01*
X131946350Y-49241837D01*
X131850692Y-49251762D01*
X131850688Y-49251763D01*
X131843834Y-49252474D01*
X131837298Y-49254655D01*
X131837296Y-49254655D01*
X131705194Y-49298728D01*
X131676054Y-49308450D01*
X131525652Y-49401522D01*
X131440028Y-49487296D01*
X131439216Y-49488109D01*
X131376934Y-49522188D01*
X131306114Y-49517185D01*
X131261025Y-49488264D01*
X131178483Y-49405866D01*
X131173303Y-49400695D01*
X131167072Y-49396854D01*
X131028968Y-49311725D01*
X131028966Y-49311724D01*
X131022738Y-49307885D01*
X130862254Y-49254655D01*
X130861389Y-49254368D01*
X130861387Y-49254368D01*
X130854861Y-49252203D01*
X130848025Y-49251503D01*
X130848022Y-49251502D01*
X130804969Y-49247091D01*
X130750400Y-49241500D01*
X130124600Y-49241500D01*
X130121354Y-49241837D01*
X130121350Y-49241837D01*
X130025692Y-49251762D01*
X130025688Y-49251763D01*
X130018834Y-49252474D01*
X130012298Y-49254655D01*
X130012296Y-49254655D01*
X129880194Y-49298728D01*
X129851054Y-49308450D01*
X129700652Y-49401522D01*
X129575695Y-49526697D01*
X129571855Y-49532927D01*
X129571854Y-49532928D01*
X129528744Y-49602866D01*
X129482885Y-49677262D01*
X129473629Y-49705169D01*
X129433197Y-49763528D01*
X129367633Y-49790764D01*
X129354036Y-49791500D01*
X123432060Y-49791500D01*
X123420203Y-49790941D01*
X123412463Y-49789211D01*
X123404538Y-49789460D01*
X123404537Y-49789460D01*
X123341599Y-49791438D01*
X123337641Y-49791500D01*
X123308568Y-49791500D01*
X123304634Y-49791997D01*
X123304632Y-49791997D01*
X123304189Y-49792053D01*
X123292354Y-49792985D01*
X123259564Y-49794016D01*
X123254089Y-49794188D01*
X123254088Y-49794188D01*
X123246169Y-49794437D01*
X123226444Y-49800168D01*
X123225571Y-49800421D01*
X123206218Y-49804429D01*
X123202743Y-49804868D01*
X123184936Y-49807118D01*
X123177568Y-49810035D01*
X123177565Y-49810036D01*
X123141982Y-49824125D01*
X123130747Y-49827971D01*
X123094016Y-49838642D01*
X123094013Y-49838643D01*
X123086400Y-49840855D01*
X123067935Y-49851775D01*
X123050195Y-49860466D01*
X123030244Y-49868365D01*
X122992874Y-49895516D01*
X122982952Y-49902033D01*
X122950023Y-49921507D01*
X122950019Y-49921510D01*
X122943193Y-49925547D01*
X122928029Y-49940711D01*
X122912996Y-49953551D01*
X122895643Y-49966159D01*
X122866198Y-50001752D01*
X122858208Y-50010532D01*
X119464145Y-53404595D01*
X119401833Y-53438621D01*
X119375050Y-53441500D01*
X110434500Y-53441500D01*
X110366379Y-53421498D01*
X110319886Y-53367842D01*
X110308500Y-53315500D01*
X110308500Y-53201866D01*
X110301745Y-53139684D01*
X110250615Y-53003295D01*
X110163261Y-52886739D01*
X110046705Y-52799385D01*
X109910316Y-52748255D01*
X109848134Y-52741500D01*
X108051866Y-52741500D01*
X107989684Y-52748255D01*
X107853295Y-52799385D01*
X107736739Y-52886739D01*
X107649385Y-53003295D01*
X107598255Y-53139684D01*
X107591500Y-53201866D01*
X107591500Y-54998134D01*
X107598255Y-55060316D01*
X107649385Y-55196705D01*
X107736739Y-55313261D01*
X107853295Y-55400615D01*
X107861704Y-55403767D01*
X107861705Y-55403768D01*
X107970451Y-55444535D01*
X108027216Y-55487176D01*
X108051916Y-55553738D01*
X108036709Y-55623087D01*
X108017316Y-55649568D01*
X107890629Y-55782138D01*
X107887715Y-55786410D01*
X107887714Y-55786411D01*
X107802556Y-55911249D01*
X107764743Y-55966680D01*
X107746599Y-56005769D01*
X107680633Y-56147881D01*
X107670688Y-56169305D01*
X107610989Y-56384570D01*
X107587251Y-56606695D01*
X107587548Y-56611848D01*
X107587548Y-56611851D01*
X107598549Y-56802644D01*
X107600110Y-56829715D01*
X107601247Y-56834761D01*
X107601248Y-56834767D01*
X107608400Y-56866500D01*
X107649222Y-57047639D01*
X107695582Y-57161811D01*
X107721179Y-57224848D01*
X107733266Y-57254616D01*
X107849987Y-57445088D01*
X107996250Y-57613938D01*
X108168126Y-57756632D01*
X108217874Y-57785702D01*
X108241445Y-57799476D01*
X108290169Y-57851114D01*
X108303240Y-57920897D01*
X108276509Y-57986669D01*
X108236055Y-58020027D01*
X108223607Y-58026507D01*
X108219474Y-58029610D01*
X108219471Y-58029612D01*
X108049100Y-58157530D01*
X108044965Y-58160635D01*
X108020189Y-58186562D01*
X107916651Y-58294908D01*
X107890629Y-58322138D01*
X107887715Y-58326410D01*
X107887714Y-58326411D01*
X107831003Y-58409547D01*
X107764743Y-58506680D01*
X107746599Y-58545769D01*
X107680633Y-58687881D01*
X107670688Y-58709305D01*
X107610989Y-58924570D01*
X107587251Y-59146695D01*
X107587548Y-59151848D01*
X107587548Y-59151851D01*
X107593930Y-59262529D01*
X107600110Y-59369715D01*
X107601247Y-59374761D01*
X107601248Y-59374767D01*
X107615558Y-59438261D01*
X107649222Y-59587639D01*
X107733266Y-59794616D01*
X107849987Y-59985088D01*
X107996250Y-60153938D01*
X108168126Y-60296632D01*
X108202352Y-60316632D01*
X108241445Y-60339476D01*
X108290169Y-60391114D01*
X108303240Y-60460897D01*
X108276509Y-60526669D01*
X108236055Y-60560027D01*
X108223607Y-60566507D01*
X108219474Y-60569610D01*
X108219471Y-60569612D01*
X108049100Y-60697530D01*
X108044965Y-60700635D01*
X108019894Y-60726870D01*
X107929466Y-60821498D01*
X107890629Y-60862138D01*
X107887715Y-60866410D01*
X107887714Y-60866411D01*
X107802556Y-60991249D01*
X107764743Y-61046680D01*
X107670688Y-61249305D01*
X107610989Y-61464570D01*
X107587251Y-61686695D01*
X107587548Y-61691848D01*
X107587548Y-61691851D01*
X107593011Y-61786590D01*
X107600110Y-61909715D01*
X107601247Y-61914761D01*
X107601248Y-61914767D01*
X107619656Y-61996448D01*
X107649222Y-62127639D01*
X107733266Y-62334616D01*
X107849987Y-62525088D01*
X107996250Y-62693938D01*
X108168126Y-62836632D01*
X108202352Y-62856632D01*
X108241445Y-62879476D01*
X108290169Y-62931114D01*
X108303240Y-63000897D01*
X108276509Y-63066669D01*
X108236055Y-63100027D01*
X108223607Y-63106507D01*
X108219474Y-63109610D01*
X108219471Y-63109612D01*
X108098529Y-63200418D01*
X108044965Y-63240635D01*
X107890629Y-63402138D01*
X107887715Y-63406410D01*
X107887714Y-63406411D01*
X107817536Y-63509289D01*
X107764743Y-63586680D01*
X107670688Y-63789305D01*
X107610989Y-64004570D01*
X107587251Y-64226695D01*
X107587548Y-64231848D01*
X107587548Y-64231851D01*
X107593011Y-64326590D01*
X107600110Y-64449715D01*
X107601247Y-64454761D01*
X107601248Y-64454767D01*
X107621119Y-64542939D01*
X107649222Y-64667639D01*
X107733266Y-64874616D01*
X107849987Y-65065088D01*
X107996250Y-65233938D01*
X108168126Y-65376632D01*
X108202352Y-65396632D01*
X108241445Y-65419476D01*
X108290169Y-65471114D01*
X108303240Y-65540897D01*
X108276509Y-65606669D01*
X108236055Y-65640027D01*
X108223607Y-65646507D01*
X108219474Y-65649610D01*
X108219471Y-65649612D01*
X108049100Y-65777530D01*
X108044965Y-65780635D01*
X107890629Y-65942138D01*
X107887715Y-65946410D01*
X107887714Y-65946411D01*
X107802556Y-66071249D01*
X107764743Y-66126680D01*
X107734655Y-66191500D01*
X107678367Y-66312763D01*
X107670688Y-66329305D01*
X107610989Y-66544570D01*
X107587251Y-66766695D01*
X87458774Y-66766695D01*
X87444852Y-66597361D01*
X87390431Y-66380702D01*
X87301354Y-66175840D01*
X87180014Y-65988277D01*
X87029670Y-65823051D01*
X87025619Y-65819852D01*
X87025615Y-65819848D01*
X86858414Y-65687800D01*
X86858410Y-65687798D01*
X86854359Y-65684598D01*
X86813053Y-65661796D01*
X86763084Y-65611364D01*
X86748312Y-65541921D01*
X86773428Y-65475516D01*
X86800780Y-65448909D01*
X86844603Y-65417650D01*
X86979860Y-65321173D01*
X87138096Y-65163489D01*
X87152468Y-65143489D01*
X87265435Y-64986277D01*
X87268453Y-64982077D01*
X87280631Y-64957438D01*
X87365136Y-64786453D01*
X87365137Y-64786451D01*
X87367430Y-64781811D01*
X87432370Y-64568069D01*
X87461529Y-64346590D01*
X87463156Y-64280000D01*
X87444852Y-64057361D01*
X87390431Y-63840702D01*
X87301354Y-63635840D01*
X87231908Y-63528493D01*
X87182822Y-63452617D01*
X87182820Y-63452614D01*
X87180014Y-63448277D01*
X87029670Y-63283051D01*
X87025619Y-63279852D01*
X87025615Y-63279848D01*
X86858414Y-63147800D01*
X86858410Y-63147798D01*
X86854359Y-63144598D01*
X86813053Y-63121796D01*
X86763084Y-63071364D01*
X86748312Y-63001921D01*
X86773428Y-62935516D01*
X86800780Y-62908909D01*
X86844603Y-62877650D01*
X86979860Y-62781173D01*
X87138096Y-62623489D01*
X87152468Y-62603489D01*
X87265435Y-62446277D01*
X87268453Y-62442077D01*
X87280631Y-62417438D01*
X87365136Y-62246453D01*
X87365137Y-62246451D01*
X87367430Y-62241811D01*
X87419234Y-62071304D01*
X87430865Y-62033023D01*
X87430865Y-62033021D01*
X87432370Y-62028069D01*
X87461529Y-61806590D01*
X87463156Y-61740000D01*
X87444852Y-61517361D01*
X87390431Y-61300702D01*
X87301354Y-61095840D01*
X87180014Y-60908277D01*
X87029670Y-60743051D01*
X87025619Y-60739852D01*
X87025615Y-60739848D01*
X86858414Y-60607800D01*
X86858410Y-60607798D01*
X86854359Y-60604598D01*
X86813053Y-60581796D01*
X86763084Y-60531364D01*
X86748312Y-60461921D01*
X86773428Y-60395516D01*
X86800780Y-60368909D01*
X86844603Y-60337650D01*
X86979860Y-60241173D01*
X87138096Y-60083489D01*
X87152468Y-60063489D01*
X87265435Y-59906277D01*
X87268453Y-59902077D01*
X87273941Y-59890974D01*
X87365136Y-59706453D01*
X87365137Y-59706451D01*
X87367430Y-59701811D01*
X87410812Y-59559025D01*
X87430865Y-59493023D01*
X87430865Y-59493021D01*
X87432370Y-59488069D01*
X87461529Y-59266590D01*
X87463156Y-59200000D01*
X87444852Y-58977361D01*
X87390431Y-58760702D01*
X87301354Y-58555840D01*
X87241901Y-58463940D01*
X87182822Y-58372617D01*
X87182820Y-58372614D01*
X87180014Y-58368277D01*
X87029670Y-58203051D01*
X87025619Y-58199852D01*
X87025615Y-58199848D01*
X86858414Y-58067800D01*
X86858410Y-58067798D01*
X86854359Y-58064598D01*
X86813053Y-58041796D01*
X86763084Y-57991364D01*
X86748312Y-57921921D01*
X86773428Y-57855516D01*
X86800780Y-57828909D01*
X86861354Y-57785702D01*
X86979860Y-57701173D01*
X87138096Y-57543489D01*
X87152468Y-57523489D01*
X87265435Y-57366277D01*
X87268453Y-57362077D01*
X87273941Y-57350974D01*
X87365136Y-57166453D01*
X87365137Y-57166451D01*
X87367430Y-57161811D01*
X87432370Y-56948069D01*
X87461529Y-56726590D01*
X87461926Y-56710346D01*
X87463074Y-56663365D01*
X87463074Y-56663361D01*
X87463156Y-56660000D01*
X87444852Y-56437361D01*
X87390431Y-56220702D01*
X87301354Y-56015840D01*
X87180014Y-55828277D01*
X87165765Y-55812617D01*
X87032798Y-55666488D01*
X87001746Y-55602642D01*
X87010141Y-55532143D01*
X87055317Y-55477375D01*
X87081761Y-55463706D01*
X87188297Y-55423767D01*
X87196705Y-55420615D01*
X87313261Y-55333261D01*
X87400615Y-55216705D01*
X87451745Y-55080316D01*
X87458500Y-55018134D01*
X87458500Y-53221866D01*
X87451745Y-53159684D01*
X87400615Y-53023295D01*
X87313261Y-52906739D01*
X87196705Y-52819385D01*
X87060316Y-52768255D01*
X86998134Y-52761500D01*
X85201866Y-52761500D01*
X85139684Y-52768255D01*
X85003295Y-52819385D01*
X84886739Y-52906739D01*
X84799385Y-53023295D01*
X84748255Y-53159684D01*
X84741500Y-53221866D01*
X84741500Y-55018134D01*
X84748255Y-55080316D01*
X84799385Y-55216705D01*
X84886739Y-55333261D01*
X85003295Y-55420615D01*
X85011704Y-55423767D01*
X85011705Y-55423768D01*
X85120451Y-55464535D01*
X85177216Y-55507176D01*
X85201916Y-55573738D01*
X85186709Y-55643087D01*
X85167316Y-55669568D01*
X85063313Y-55778401D01*
X85040629Y-55802138D01*
X84914743Y-55986680D01*
X84896169Y-56026695D01*
X84829972Y-56169305D01*
X84820688Y-56189305D01*
X84760989Y-56404570D01*
X84737251Y-56626695D01*
X84737548Y-56631848D01*
X84737548Y-56631851D01*
X84742951Y-56725548D01*
X84750110Y-56849715D01*
X84751247Y-56854761D01*
X84751248Y-56854767D01*
X84769269Y-56934729D01*
X84799222Y-57067639D01*
X84883266Y-57274616D01*
X84999987Y-57465088D01*
X85146250Y-57633938D01*
X85318126Y-57776632D01*
X85333648Y-57785702D01*
X85391445Y-57819476D01*
X85440169Y-57871114D01*
X85453240Y-57940897D01*
X85426509Y-58006669D01*
X85386055Y-58040027D01*
X85373607Y-58046507D01*
X85369474Y-58049610D01*
X85369471Y-58049612D01*
X85208908Y-58170166D01*
X85194965Y-58180635D01*
X85191393Y-58184373D01*
X85063313Y-58318401D01*
X85040629Y-58342138D01*
X84914743Y-58526680D01*
X84896169Y-58566695D01*
X84829972Y-58709305D01*
X84820688Y-58729305D01*
X84760989Y-58944570D01*
X84737251Y-59166695D01*
X84737548Y-59171848D01*
X84737548Y-59171851D01*
X84743202Y-59269908D01*
X84750110Y-59389715D01*
X84751247Y-59394761D01*
X84751248Y-59394767D01*
X84765089Y-59456181D01*
X84799222Y-59607639D01*
X84883266Y-59814616D01*
X84999987Y-60005088D01*
X85146250Y-60173938D01*
X85318126Y-60316632D01*
X85357219Y-60339476D01*
X85391445Y-60359476D01*
X85440169Y-60411114D01*
X85453240Y-60480897D01*
X85426509Y-60546669D01*
X85386055Y-60580027D01*
X85373607Y-60586507D01*
X85369474Y-60589610D01*
X85369471Y-60589612D01*
X85216624Y-60704373D01*
X85194965Y-60720635D01*
X85191393Y-60724373D01*
X85063313Y-60858401D01*
X85040629Y-60882138D01*
X84914743Y-61066680D01*
X84899003Y-61100590D01*
X84829972Y-61249305D01*
X84820688Y-61269305D01*
X84760989Y-61484570D01*
X84737251Y-61706695D01*
X84737548Y-61711848D01*
X84737548Y-61711851D01*
X84743011Y-61806590D01*
X84750110Y-61929715D01*
X84751247Y-61934761D01*
X84751248Y-61934767D01*
X84770196Y-62018842D01*
X84799222Y-62147639D01*
X84883266Y-62354616D01*
X84999987Y-62545088D01*
X85146250Y-62713938D01*
X85318126Y-62856632D01*
X85357219Y-62879476D01*
X85391445Y-62899476D01*
X85440169Y-62951114D01*
X85453240Y-63020897D01*
X85426509Y-63086669D01*
X85386055Y-63120027D01*
X85373607Y-63126507D01*
X85369474Y-63129610D01*
X85369471Y-63129612D01*
X85216624Y-63244373D01*
X85194965Y-63260635D01*
X85129346Y-63329301D01*
X85063313Y-63398401D01*
X85040629Y-63422138D01*
X85037715Y-63426410D01*
X85037714Y-63426411D01*
X85005971Y-63472945D01*
X84914743Y-63606680D01*
X84888758Y-63662660D01*
X84829972Y-63789305D01*
X84820688Y-63809305D01*
X84760989Y-64024570D01*
X84737251Y-64246695D01*
X84737548Y-64251848D01*
X84737548Y-64251851D01*
X84743011Y-64346590D01*
X84750110Y-64469715D01*
X84751247Y-64474761D01*
X84751248Y-64474767D01*
X84771119Y-64562939D01*
X84799222Y-64687639D01*
X84883266Y-64894616D01*
X84999987Y-65085088D01*
X85146250Y-65253938D01*
X85318126Y-65396632D01*
X85357219Y-65419476D01*
X85391445Y-65439476D01*
X85440169Y-65491114D01*
X85453240Y-65560897D01*
X85426509Y-65626669D01*
X85386055Y-65660027D01*
X85373607Y-65666507D01*
X85369474Y-65669610D01*
X85369471Y-65669612D01*
X85216624Y-65784373D01*
X85194965Y-65800635D01*
X85191393Y-65804373D01*
X85063313Y-65938401D01*
X85040629Y-65962138D01*
X84914743Y-66146680D01*
X84876144Y-66229834D01*
X84829972Y-66329305D01*
X84820688Y-66349305D01*
X84760989Y-66564570D01*
X84737251Y-66786695D01*
X84737548Y-66791848D01*
X84737548Y-66791851D01*
X84743011Y-66886590D01*
X84750110Y-67009715D01*
X84751247Y-67014761D01*
X84751248Y-67014767D01*
X84768977Y-67093435D01*
X84799222Y-67227639D01*
X84837461Y-67321811D01*
X84867933Y-67396854D01*
X84883266Y-67434616D01*
X84999987Y-67625088D01*
X85146250Y-67793938D01*
X85272809Y-67899009D01*
X85311533Y-67931158D01*
X85318126Y-67936632D01*
X85360681Y-67961499D01*
X85391445Y-67979476D01*
X85440169Y-68031114D01*
X85453240Y-68100897D01*
X85426509Y-68166669D01*
X85386055Y-68200027D01*
X85373607Y-68206507D01*
X85369474Y-68209610D01*
X85369471Y-68209612D01*
X85345247Y-68227800D01*
X85194965Y-68340635D01*
X85040629Y-68502138D01*
X84914743Y-68686680D01*
X84820688Y-68889305D01*
X84760989Y-69104570D01*
X84737251Y-69326695D01*
X84737548Y-69331848D01*
X84737548Y-69331851D01*
X84743011Y-69426590D01*
X84750110Y-69549715D01*
X84751247Y-69554761D01*
X84751248Y-69554767D01*
X84765290Y-69617072D01*
X84799222Y-69767639D01*
X84883266Y-69974616D01*
X84999987Y-70165088D01*
X85146250Y-70333938D01*
X85318126Y-70476632D01*
X85364004Y-70503441D01*
X85391445Y-70519476D01*
X85440169Y-70571114D01*
X85453240Y-70640897D01*
X85426509Y-70706669D01*
X85386055Y-70740027D01*
X85373607Y-70746507D01*
X85369474Y-70749610D01*
X85369471Y-70749612D01*
X85216624Y-70864373D01*
X85194965Y-70880635D01*
X85191393Y-70884373D01*
X85063313Y-71018401D01*
X85040629Y-71042138D01*
X84914743Y-71226680D01*
X84896169Y-71266695D01*
X84824574Y-71420934D01*
X84820688Y-71429305D01*
X84760989Y-71644570D01*
X84737251Y-71866695D01*
X84737548Y-71871848D01*
X84737548Y-71871851D01*
X84747540Y-72045139D01*
X84750110Y-72089715D01*
X84751247Y-72094761D01*
X84751248Y-72094767D01*
X84762873Y-72146350D01*
X84799222Y-72307639D01*
X84883266Y-72514616D01*
X84903311Y-72547326D01*
X84996954Y-72700138D01*
X84999987Y-72705088D01*
X85146250Y-72873938D01*
X85318126Y-73016632D01*
X85366460Y-73044876D01*
X85391445Y-73059476D01*
X85440169Y-73111114D01*
X85453240Y-73180897D01*
X85426509Y-73246669D01*
X85386055Y-73280027D01*
X85373607Y-73286507D01*
X85369474Y-73289610D01*
X85369471Y-73289612D01*
X85199809Y-73416998D01*
X85194965Y-73420635D01*
X85169894Y-73446870D01*
X85063313Y-73558401D01*
X85040629Y-73582138D01*
X85037715Y-73586410D01*
X85037714Y-73586411D01*
X84961267Y-73698478D01*
X84914743Y-73766680D01*
X84896169Y-73806695D01*
X84829972Y-73949305D01*
X84820688Y-73969305D01*
X84760989Y-74184570D01*
X84737251Y-74406695D01*
X84737548Y-74411848D01*
X84737548Y-74411851D01*
X84748659Y-74604547D01*
X84750110Y-74629715D01*
X84751247Y-74634761D01*
X84751248Y-74634767D01*
X84771119Y-74722939D01*
X84799222Y-74847639D01*
X84883266Y-75054616D01*
X84999987Y-75245088D01*
X85146250Y-75413938D01*
X85318126Y-75556632D01*
X85356175Y-75578866D01*
X85391445Y-75599476D01*
X85440169Y-75651114D01*
X85453240Y-75720897D01*
X85426509Y-75786669D01*
X85386055Y-75820027D01*
X85373607Y-75826507D01*
X85369474Y-75829610D01*
X85369471Y-75829612D01*
X85199100Y-75957530D01*
X85194965Y-75960635D01*
X85191393Y-75964373D01*
X85063313Y-76098401D01*
X85040629Y-76122138D01*
X84914743Y-76306680D01*
X84899003Y-76340590D01*
X84829972Y-76489305D01*
X84820688Y-76509305D01*
X84760989Y-76724570D01*
X84737251Y-76946695D01*
X84737548Y-76951848D01*
X84737548Y-76951851D01*
X84742942Y-77045405D01*
X84750110Y-77169715D01*
X84751247Y-77174761D01*
X84751248Y-77174767D01*
X84762950Y-77226690D01*
X84799222Y-77387639D01*
X84883266Y-77594616D01*
X84999987Y-77785088D01*
X85146250Y-77953938D01*
X85318126Y-78096632D01*
X85357219Y-78119476D01*
X85391445Y-78139476D01*
X85440169Y-78191114D01*
X85453240Y-78260897D01*
X85426509Y-78326669D01*
X85386055Y-78360027D01*
X85373607Y-78366507D01*
X85369474Y-78369610D01*
X85369471Y-78369612D01*
X85202619Y-78494888D01*
X85194965Y-78500635D01*
X85185658Y-78510374D01*
X85063313Y-78638401D01*
X85040629Y-78662138D01*
X84914743Y-78846680D01*
X84899003Y-78880590D01*
X84829972Y-79029305D01*
X84820688Y-79049305D01*
X84760989Y-79264570D01*
X84737251Y-79486695D01*
X84737548Y-79491848D01*
X84737548Y-79491851D01*
X84744870Y-79618842D01*
X84750110Y-79709715D01*
X84751247Y-79714761D01*
X84751248Y-79714767D01*
X84767768Y-79788069D01*
X84799222Y-79927639D01*
X84883266Y-80134616D01*
X84999987Y-80325088D01*
X85146250Y-80493938D01*
X85318126Y-80636632D01*
X85357219Y-80659476D01*
X85391445Y-80679476D01*
X85440169Y-80731114D01*
X85453240Y-80800897D01*
X85426509Y-80866669D01*
X85386055Y-80900027D01*
X85373607Y-80906507D01*
X85369474Y-80909610D01*
X85369471Y-80909612D01*
X85199100Y-81037530D01*
X85194965Y-81040635D01*
X85152998Y-81084551D01*
X85063313Y-81178401D01*
X85040629Y-81202138D01*
X84914743Y-81386680D01*
X84899003Y-81420590D01*
X84829972Y-81569305D01*
X84820688Y-81589305D01*
X84760989Y-81804570D01*
X84737251Y-82026695D01*
X84737548Y-82031848D01*
X84737548Y-82031851D01*
X84743011Y-82126590D01*
X84750110Y-82249715D01*
X84751247Y-82254761D01*
X84751248Y-82254767D01*
X84771119Y-82342939D01*
X84799222Y-82467639D01*
X84883266Y-82674616D01*
X84999987Y-82865088D01*
X85146250Y-83033938D01*
X85318126Y-83176632D01*
X85357219Y-83199476D01*
X85391445Y-83219476D01*
X85440169Y-83271114D01*
X85453240Y-83340897D01*
X85426509Y-83406669D01*
X85386055Y-83440027D01*
X85373607Y-83446507D01*
X85369474Y-83449610D01*
X85369471Y-83449612D01*
X85216624Y-83564373D01*
X85194965Y-83580635D01*
X85191393Y-83584373D01*
X85063313Y-83718401D01*
X85040629Y-83742138D01*
X84914743Y-83926680D01*
X84899003Y-83960590D01*
X84829972Y-84109305D01*
X84820688Y-84129305D01*
X84760989Y-84344570D01*
X84737251Y-84566695D01*
X84737548Y-84571848D01*
X84737548Y-84571851D01*
X84743011Y-84666590D01*
X84750110Y-84789715D01*
X84751247Y-84794761D01*
X84751248Y-84794767D01*
X84771119Y-84882939D01*
X84799222Y-85007639D01*
X84883266Y-85214616D01*
X84999987Y-85405088D01*
X85146250Y-85573938D01*
X85318126Y-85716632D01*
X85371621Y-85747892D01*
X85391445Y-85759476D01*
X85440169Y-85811114D01*
X85453240Y-85880897D01*
X85426509Y-85946669D01*
X85386055Y-85980027D01*
X85373607Y-85986507D01*
X85369474Y-85989610D01*
X85369471Y-85989612D01*
X85345247Y-86007800D01*
X85194965Y-86120635D01*
X85040629Y-86282138D01*
X84914743Y-86466680D01*
X84820688Y-86669305D01*
X84760989Y-86884570D01*
X84737251Y-87106695D01*
X84737548Y-87111848D01*
X84737548Y-87111851D01*
X84743011Y-87206590D01*
X84750110Y-87329715D01*
X84751247Y-87334761D01*
X84751248Y-87334767D01*
X84771119Y-87422939D01*
X84799222Y-87547639D01*
X84883266Y-87754616D01*
X84999987Y-87945088D01*
X85146250Y-88113938D01*
X85318126Y-88256632D01*
X85377796Y-88291500D01*
X85391445Y-88299476D01*
X85440169Y-88351114D01*
X85453240Y-88420897D01*
X85426509Y-88486669D01*
X85386055Y-88520027D01*
X85373607Y-88526507D01*
X85369474Y-88529610D01*
X85369471Y-88529612D01*
X85216624Y-88644373D01*
X85194965Y-88660635D01*
X85179616Y-88676697D01*
X85063313Y-88798401D01*
X85040629Y-88822138D01*
X85037715Y-88826410D01*
X85037714Y-88826411D01*
X85036441Y-88828277D01*
X84914743Y-89006680D01*
X84899003Y-89040590D01*
X84829972Y-89189305D01*
X84820688Y-89209305D01*
X84760989Y-89424570D01*
X84737251Y-89646695D01*
X82508500Y-89646695D01*
X82508500Y-45634500D01*
X82528502Y-45566379D01*
X82582158Y-45519886D01*
X82634500Y-45508500D01*
X151365500Y-45508500D01*
X151433621Y-45528502D01*
G37*
%TD.AperFunction*%
%TD*%
M02*
