%TF.GenerationSoftware,KiCad,Pcbnew,(6.0.7)*%
%TF.CreationDate,2022-10-30T17:48:50+07:00*%
%TF.ProjectId,dd,64642e6b-6963-4616-945f-706362585858,rev?*%
%TF.SameCoordinates,Original*%
%TF.FileFunction,Legend,Top*%
%TF.FilePolarity,Positive*%
%FSLAX46Y46*%
G04 Gerber Fmt 4.6, Leading zero omitted, Abs format (unit mm)*
G04 Created by KiCad (PCBNEW (6.0.7)) date 2022-10-30 17:48:50*
%MOMM*%
%LPD*%
G01*
G04 APERTURE LIST*
%ADD10C,0.150000*%
%ADD11C,0.120000*%
G04 APERTURE END LIST*
D10*
X147100000Y-64807142D02*
X147100000Y-64092857D01*
X147528571Y-64950000D02*
X146028571Y-64450000D01*
X147528571Y-63950000D01*
X147528571Y-63450000D02*
X146028571Y-63450000D01*
X146028571Y-62878571D01*
X146100000Y-62735714D01*
X146171428Y-62664285D01*
X146314285Y-62592857D01*
X146528571Y-62592857D01*
X146671428Y-62664285D01*
X146742857Y-62735714D01*
X146814285Y-62878571D01*
X146814285Y-63450000D01*
X147528571Y-61950000D02*
X146028571Y-61950000D01*
X146028571Y-61592857D01*
X146100000Y-61378571D01*
X146242857Y-61235714D01*
X146385714Y-61164285D01*
X146671428Y-61092857D01*
X146885714Y-61092857D01*
X147171428Y-61164285D01*
X147314285Y-61235714D01*
X147457142Y-61378571D01*
X147528571Y-61592857D01*
X147528571Y-61950000D01*
X147457142Y-60521428D02*
X147528571Y-60307142D01*
X147528571Y-59950000D01*
X147457142Y-59807142D01*
X147385714Y-59735714D01*
X147242857Y-59664285D01*
X147100000Y-59664285D01*
X146957142Y-59735714D01*
X146885714Y-59807142D01*
X146814285Y-59950000D01*
X146742857Y-60235714D01*
X146671428Y-60378571D01*
X146600000Y-60450000D01*
X146457142Y-60521428D01*
X146314285Y-60521428D01*
X146171428Y-60450000D01*
X146100000Y-60378571D01*
X146028571Y-60235714D01*
X146028571Y-59878571D01*
X146100000Y-59664285D01*
X146957142Y-59021428D02*
X146957142Y-57878571D01*
X147528571Y-57092857D02*
X147528571Y-56807142D01*
X147457142Y-56664285D01*
X147385714Y-56592857D01*
X147171428Y-56450000D01*
X146885714Y-56378571D01*
X146314285Y-56378571D01*
X146171428Y-56450000D01*
X146100000Y-56521428D01*
X146028571Y-56664285D01*
X146028571Y-56950000D01*
X146100000Y-57092857D01*
X146171428Y-57164285D01*
X146314285Y-57235714D01*
X146671428Y-57235714D01*
X146814285Y-57164285D01*
X146885714Y-57092857D01*
X146957142Y-56950000D01*
X146957142Y-56664285D01*
X146885714Y-56521428D01*
X146814285Y-56450000D01*
X146671428Y-56378571D01*
X147528571Y-55664285D02*
X147528571Y-55378571D01*
X147457142Y-55235714D01*
X147385714Y-55164285D01*
X147171428Y-55021428D01*
X146885714Y-54950000D01*
X146314285Y-54950000D01*
X146171428Y-55021428D01*
X146100000Y-55092857D01*
X146028571Y-55235714D01*
X146028571Y-55521428D01*
X146100000Y-55664285D01*
X146171428Y-55735714D01*
X146314285Y-55807142D01*
X146671428Y-55807142D01*
X146814285Y-55735714D01*
X146885714Y-55664285D01*
X146957142Y-55521428D01*
X146957142Y-55235714D01*
X146885714Y-55092857D01*
X146814285Y-55021428D01*
X146671428Y-54950000D01*
X146028571Y-53664285D02*
X146028571Y-53950000D01*
X146100000Y-54092857D01*
X146171428Y-54164285D01*
X146385714Y-54307142D01*
X146671428Y-54378571D01*
X147242857Y-54378571D01*
X147385714Y-54307142D01*
X147457142Y-54235714D01*
X147528571Y-54092857D01*
X147528571Y-53807142D01*
X147457142Y-53664285D01*
X147385714Y-53592857D01*
X147242857Y-53521428D01*
X146885714Y-53521428D01*
X146742857Y-53592857D01*
X146671428Y-53664285D01*
X146600000Y-53807142D01*
X146600000Y-54092857D01*
X146671428Y-54235714D01*
X146742857Y-54307142D01*
X146885714Y-54378571D01*
X146028571Y-52592857D02*
X146028571Y-52450000D01*
X146100000Y-52307142D01*
X146171428Y-52235714D01*
X146314285Y-52164285D01*
X146600000Y-52092857D01*
X146957142Y-52092857D01*
X147242857Y-52164285D01*
X147385714Y-52235714D01*
X147457142Y-52307142D01*
X147528571Y-52450000D01*
X147528571Y-52592857D01*
X147457142Y-52735714D01*
X147385714Y-52807142D01*
X147242857Y-52878571D01*
X146957142Y-52950000D01*
X146600000Y-52950000D01*
X146314285Y-52878571D01*
X146171428Y-52807142D01*
X146100000Y-52735714D01*
X146028571Y-52592857D01*
X110916666Y-90666666D02*
X111150000Y-91366666D01*
X111383333Y-90666666D01*
X112016666Y-91300000D02*
X111983333Y-91333333D01*
X111883333Y-91366666D01*
X111816666Y-91366666D01*
X111716666Y-91333333D01*
X111650000Y-91266666D01*
X111616666Y-91200000D01*
X111583333Y-91066666D01*
X111583333Y-90966666D01*
X111616666Y-90833333D01*
X111650000Y-90766666D01*
X111716666Y-90700000D01*
X111816666Y-90666666D01*
X111883333Y-90666666D01*
X111983333Y-90700000D01*
X112016666Y-90733333D01*
X112716666Y-91300000D02*
X112683333Y-91333333D01*
X112583333Y-91366666D01*
X112516666Y-91366666D01*
X112416666Y-91333333D01*
X112350000Y-91266666D01*
X112316666Y-91200000D01*
X112283333Y-91066666D01*
X112283333Y-90966666D01*
X112316666Y-90833333D01*
X112350000Y-90766666D01*
X112416666Y-90700000D01*
X112516666Y-90666666D01*
X112583333Y-90666666D01*
X112683333Y-90700000D01*
X112716666Y-90733333D01*
X111833333Y-86650000D02*
X111766666Y-86616666D01*
X111666666Y-86616666D01*
X111566666Y-86650000D01*
X111500000Y-86716666D01*
X111466666Y-86783333D01*
X111433333Y-86916666D01*
X111433333Y-87016666D01*
X111466666Y-87150000D01*
X111500000Y-87216666D01*
X111566666Y-87283333D01*
X111666666Y-87316666D01*
X111733333Y-87316666D01*
X111833333Y-87283333D01*
X111866666Y-87250000D01*
X111866666Y-87016666D01*
X111733333Y-87016666D01*
X111183333Y-53566666D02*
X111183333Y-52866666D01*
X111350000Y-52866666D01*
X111450000Y-52900000D01*
X111516666Y-52966666D01*
X111550000Y-53033333D01*
X111583333Y-53166666D01*
X111583333Y-53266666D01*
X111550000Y-53400000D01*
X111516666Y-53466666D01*
X111450000Y-53533333D01*
X111350000Y-53566666D01*
X111183333Y-53566666D01*
X112016666Y-52866666D02*
X112083333Y-52866666D01*
X112150000Y-52900000D01*
X112183333Y-52933333D01*
X112216666Y-53000000D01*
X112250000Y-53133333D01*
X112250000Y-53300000D01*
X112216666Y-53433333D01*
X112183333Y-53500000D01*
X112150000Y-53533333D01*
X112083333Y-53566666D01*
X112016666Y-53566666D01*
X111950000Y-53533333D01*
X111916666Y-53500000D01*
X111883333Y-53433333D01*
X111850000Y-53300000D01*
X111850000Y-53133333D01*
X111883333Y-53000000D01*
X111916666Y-52933333D01*
X111950000Y-52900000D01*
X112016666Y-52866666D01*
X131916666Y-56183333D02*
X132016666Y-56216666D01*
X132183333Y-56216666D01*
X132250000Y-56183333D01*
X132283333Y-56150000D01*
X132316666Y-56083333D01*
X132316666Y-56016666D01*
X132283333Y-55950000D01*
X132250000Y-55916666D01*
X132183333Y-55883333D01*
X132050000Y-55850000D01*
X131983333Y-55816666D01*
X131950000Y-55783333D01*
X131916666Y-55716666D01*
X131916666Y-55650000D01*
X131950000Y-55583333D01*
X131983333Y-55550000D01*
X132050000Y-55516666D01*
X132216666Y-55516666D01*
X132316666Y-55550000D01*
X133016666Y-56150000D02*
X132983333Y-56183333D01*
X132883333Y-56216666D01*
X132816666Y-56216666D01*
X132716666Y-56183333D01*
X132650000Y-56116666D01*
X132616666Y-56050000D01*
X132583333Y-55916666D01*
X132583333Y-55816666D01*
X132616666Y-55683333D01*
X132650000Y-55616666D01*
X132716666Y-55550000D01*
X132816666Y-55516666D01*
X132883333Y-55516666D01*
X132983333Y-55550000D01*
X133016666Y-55583333D01*
X133650000Y-56216666D02*
X133316666Y-56216666D01*
X133316666Y-55516666D01*
X110583333Y-77266666D02*
X110583333Y-76566666D01*
X110750000Y-76566666D01*
X110850000Y-76600000D01*
X110916666Y-76666666D01*
X110950000Y-76733333D01*
X110983333Y-76866666D01*
X110983333Y-76966666D01*
X110950000Y-77100000D01*
X110916666Y-77166666D01*
X110850000Y-77233333D01*
X110750000Y-77266666D01*
X110583333Y-77266666D01*
X111216666Y-76566666D02*
X111683333Y-76566666D01*
X111383333Y-77266666D01*
X110733333Y-73816666D02*
X110733333Y-73116666D01*
X110900000Y-73116666D01*
X111000000Y-73150000D01*
X111066666Y-73216666D01*
X111100000Y-73283333D01*
X111133333Y-73416666D01*
X111133333Y-73516666D01*
X111100000Y-73650000D01*
X111066666Y-73716666D01*
X111000000Y-73783333D01*
X110900000Y-73816666D01*
X110733333Y-73816666D01*
X111733333Y-73116666D02*
X111600000Y-73116666D01*
X111533333Y-73150000D01*
X111500000Y-73183333D01*
X111433333Y-73283333D01*
X111400000Y-73416666D01*
X111400000Y-73683333D01*
X111433333Y-73750000D01*
X111466666Y-73783333D01*
X111533333Y-73816666D01*
X111666666Y-73816666D01*
X111733333Y-73783333D01*
X111766666Y-73750000D01*
X111800000Y-73683333D01*
X111800000Y-73516666D01*
X111766666Y-73450000D01*
X111733333Y-73416666D01*
X111666666Y-73383333D01*
X111533333Y-73383333D01*
X111466666Y-73416666D01*
X111433333Y-73450000D01*
X111400000Y-73516666D01*
X144383333Y-76254761D02*
X143716666Y-75302380D01*
X143240476Y-76254761D02*
X143240476Y-74254761D01*
X144002380Y-74254761D01*
X144192857Y-74350000D01*
X144288095Y-74445238D01*
X144383333Y-74635714D01*
X144383333Y-74921428D01*
X144288095Y-75111904D01*
X144192857Y-75207142D01*
X144002380Y-75302380D01*
X143240476Y-75302380D01*
X145240476Y-76254761D02*
X145240476Y-74254761D01*
X147240476Y-74350000D02*
X147050000Y-74254761D01*
X146764285Y-74254761D01*
X146478571Y-74350000D01*
X146288095Y-74540476D01*
X146192857Y-74730952D01*
X146097619Y-75111904D01*
X146097619Y-75397619D01*
X146192857Y-75778571D01*
X146288095Y-75969047D01*
X146478571Y-76159523D01*
X146764285Y-76254761D01*
X146954761Y-76254761D01*
X147240476Y-76159523D01*
X147335714Y-76064285D01*
X147335714Y-75397619D01*
X146954761Y-75397619D01*
X148192857Y-76254761D02*
X148192857Y-74254761D01*
X148192857Y-75207142D02*
X149335714Y-75207142D01*
X149335714Y-76254761D02*
X149335714Y-74254761D01*
X150002380Y-74254761D02*
X151145238Y-74254761D01*
X150573809Y-76254761D02*
X150573809Y-74254761D01*
X110983333Y-60316666D02*
X110983333Y-59616666D01*
X111150000Y-59616666D01*
X111250000Y-59650000D01*
X111316666Y-59716666D01*
X111350000Y-59783333D01*
X111383333Y-59916666D01*
X111383333Y-60016666D01*
X111350000Y-60150000D01*
X111316666Y-60216666D01*
X111250000Y-60283333D01*
X111150000Y-60316666D01*
X110983333Y-60316666D01*
X111650000Y-59683333D02*
X111683333Y-59650000D01*
X111750000Y-59616666D01*
X111916666Y-59616666D01*
X111983333Y-59650000D01*
X112016666Y-59683333D01*
X112050000Y-59750000D01*
X112050000Y-59816666D01*
X112016666Y-59916666D01*
X111616666Y-60316666D01*
X112050000Y-60316666D01*
X110733333Y-80216666D02*
X110733333Y-79516666D01*
X110900000Y-79516666D01*
X111000000Y-79550000D01*
X111066666Y-79616666D01*
X111100000Y-79683333D01*
X111133333Y-79816666D01*
X111133333Y-79916666D01*
X111100000Y-80050000D01*
X111066666Y-80116666D01*
X111000000Y-80183333D01*
X110900000Y-80216666D01*
X110733333Y-80216666D01*
X111533333Y-79816666D02*
X111466666Y-79783333D01*
X111433333Y-79750000D01*
X111400000Y-79683333D01*
X111400000Y-79650000D01*
X111433333Y-79583333D01*
X111466666Y-79550000D01*
X111533333Y-79516666D01*
X111666666Y-79516666D01*
X111733333Y-79550000D01*
X111766666Y-79583333D01*
X111800000Y-79650000D01*
X111800000Y-79683333D01*
X111766666Y-79750000D01*
X111733333Y-79783333D01*
X111666666Y-79816666D01*
X111533333Y-79816666D01*
X111466666Y-79850000D01*
X111433333Y-79883333D01*
X111400000Y-79950000D01*
X111400000Y-80083333D01*
X111433333Y-80150000D01*
X111466666Y-80183333D01*
X111533333Y-80216666D01*
X111666666Y-80216666D01*
X111733333Y-80183333D01*
X111766666Y-80150000D01*
X111800000Y-80083333D01*
X111800000Y-79950000D01*
X111766666Y-79883333D01*
X111733333Y-79850000D01*
X111666666Y-79816666D01*
X90071428Y-50357142D02*
X90738095Y-50357142D01*
X91023809Y-51404761D02*
X90071428Y-51404761D01*
X90071428Y-49404761D01*
X91023809Y-49404761D01*
X91785714Y-51309523D02*
X92071428Y-51404761D01*
X92547619Y-51404761D01*
X92738095Y-51309523D01*
X92833333Y-51214285D01*
X92928571Y-51023809D01*
X92928571Y-50833333D01*
X92833333Y-50642857D01*
X92738095Y-50547619D01*
X92547619Y-50452380D01*
X92166666Y-50357142D01*
X91976190Y-50261904D01*
X91880952Y-50166666D01*
X91785714Y-49976190D01*
X91785714Y-49785714D01*
X91880952Y-49595238D01*
X91976190Y-49500000D01*
X92166666Y-49404761D01*
X92642857Y-49404761D01*
X92928571Y-49500000D01*
X93785714Y-51404761D02*
X93785714Y-49404761D01*
X94547619Y-49404761D01*
X94738095Y-49500000D01*
X94833333Y-49595238D01*
X94928571Y-49785714D01*
X94928571Y-50071428D01*
X94833333Y-50261904D01*
X94738095Y-50357142D01*
X94547619Y-50452380D01*
X93785714Y-50452380D01*
X95785714Y-50642857D02*
X97309523Y-50642857D01*
X98547619Y-50261904D02*
X98357142Y-50166666D01*
X98261904Y-50071428D01*
X98166666Y-49880952D01*
X98166666Y-49785714D01*
X98261904Y-49595238D01*
X98357142Y-49500000D01*
X98547619Y-49404761D01*
X98928571Y-49404761D01*
X99119047Y-49500000D01*
X99214285Y-49595238D01*
X99309523Y-49785714D01*
X99309523Y-49880952D01*
X99214285Y-50071428D01*
X99119047Y-50166666D01*
X98928571Y-50261904D01*
X98547619Y-50261904D01*
X98357142Y-50357142D01*
X98261904Y-50452380D01*
X98166666Y-50642857D01*
X98166666Y-51023809D01*
X98261904Y-51214285D01*
X98357142Y-51309523D01*
X98547619Y-51404761D01*
X98928571Y-51404761D01*
X99119047Y-51309523D01*
X99214285Y-51214285D01*
X99309523Y-51023809D01*
X99309523Y-50642857D01*
X99214285Y-50452380D01*
X99119047Y-50357142D01*
X98928571Y-50261904D01*
X100071428Y-49595238D02*
X100166666Y-49500000D01*
X100357142Y-49404761D01*
X100833333Y-49404761D01*
X101023809Y-49500000D01*
X101119047Y-49595238D01*
X101214285Y-49785714D01*
X101214285Y-49976190D01*
X101119047Y-50261904D01*
X99976190Y-51404761D01*
X101214285Y-51404761D01*
X102928571Y-49404761D02*
X102547619Y-49404761D01*
X102357142Y-49500000D01*
X102261904Y-49595238D01*
X102071428Y-49880952D01*
X101976190Y-50261904D01*
X101976190Y-51023809D01*
X102071428Y-51214285D01*
X102166666Y-51309523D01*
X102357142Y-51404761D01*
X102738095Y-51404761D01*
X102928571Y-51309523D01*
X103023809Y-51214285D01*
X103119047Y-51023809D01*
X103119047Y-50547619D01*
X103023809Y-50357142D01*
X102928571Y-50261904D01*
X102738095Y-50166666D01*
X102357142Y-50166666D01*
X102166666Y-50261904D01*
X102071428Y-50357142D01*
X101976190Y-50547619D01*
X104833333Y-49404761D02*
X104452380Y-49404761D01*
X104261904Y-49500000D01*
X104166666Y-49595238D01*
X103976190Y-49880952D01*
X103880952Y-50261904D01*
X103880952Y-51023809D01*
X103976190Y-51214285D01*
X104071428Y-51309523D01*
X104261904Y-51404761D01*
X104642857Y-51404761D01*
X104833333Y-51309523D01*
X104928571Y-51214285D01*
X105023809Y-51023809D01*
X105023809Y-50547619D01*
X104928571Y-50357142D01*
X104833333Y-50261904D01*
X104642857Y-50166666D01*
X104261904Y-50166666D01*
X104071428Y-50261904D01*
X103976190Y-50357142D01*
X103880952Y-50547619D01*
X134500000Y-56083333D02*
X134600000Y-56116666D01*
X134766666Y-56116666D01*
X134833333Y-56083333D01*
X134866666Y-56050000D01*
X134900000Y-55983333D01*
X134900000Y-55916666D01*
X134866666Y-55850000D01*
X134833333Y-55816666D01*
X134766666Y-55783333D01*
X134633333Y-55750000D01*
X134566666Y-55716666D01*
X134533333Y-55683333D01*
X134500000Y-55616666D01*
X134500000Y-55550000D01*
X134533333Y-55483333D01*
X134566666Y-55450000D01*
X134633333Y-55416666D01*
X134800000Y-55416666D01*
X134900000Y-55450000D01*
X135200000Y-56116666D02*
X135200000Y-55416666D01*
X135366666Y-55416666D01*
X135466666Y-55450000D01*
X135533333Y-55516666D01*
X135566666Y-55583333D01*
X135600000Y-55716666D01*
X135600000Y-55816666D01*
X135566666Y-55950000D01*
X135533333Y-56016666D01*
X135466666Y-56083333D01*
X135366666Y-56116666D01*
X135200000Y-56116666D01*
X135866666Y-55916666D02*
X136200000Y-55916666D01*
X135800000Y-56116666D02*
X136033333Y-55416666D01*
X136266666Y-56116666D01*
X137066666Y-55466666D02*
X137300000Y-56166666D01*
X137533333Y-55466666D01*
X138166666Y-56100000D02*
X138133333Y-56133333D01*
X138033333Y-56166666D01*
X137966666Y-56166666D01*
X137866666Y-56133333D01*
X137800000Y-56066666D01*
X137766666Y-56000000D01*
X137733333Y-55866666D01*
X137733333Y-55766666D01*
X137766666Y-55633333D01*
X137800000Y-55566666D01*
X137866666Y-55500000D01*
X137966666Y-55466666D01*
X138033333Y-55466666D01*
X138133333Y-55500000D01*
X138166666Y-55533333D01*
X138866666Y-56100000D02*
X138833333Y-56133333D01*
X138733333Y-56166666D01*
X138666666Y-56166666D01*
X138566666Y-56133333D01*
X138500000Y-56066666D01*
X138466666Y-56000000D01*
X138433333Y-55866666D01*
X138433333Y-55766666D01*
X138466666Y-55633333D01*
X138500000Y-55566666D01*
X138566666Y-55500000D01*
X138666666Y-55466666D01*
X138733333Y-55466666D01*
X138833333Y-55500000D01*
X138866666Y-55533333D01*
X110683333Y-71516666D02*
X110683333Y-70816666D01*
X110850000Y-70816666D01*
X110950000Y-70850000D01*
X111016666Y-70916666D01*
X111050000Y-70983333D01*
X111083333Y-71116666D01*
X111083333Y-71216666D01*
X111050000Y-71350000D01*
X111016666Y-71416666D01*
X110950000Y-71483333D01*
X110850000Y-71516666D01*
X110683333Y-71516666D01*
X111716666Y-70816666D02*
X111383333Y-70816666D01*
X111350000Y-71150000D01*
X111383333Y-71116666D01*
X111450000Y-71083333D01*
X111616666Y-71083333D01*
X111683333Y-71116666D01*
X111716666Y-71150000D01*
X111750000Y-71216666D01*
X111750000Y-71383333D01*
X111716666Y-71450000D01*
X111683333Y-71483333D01*
X111616666Y-71516666D01*
X111450000Y-71516666D01*
X111383333Y-71483333D01*
X111350000Y-71450000D01*
X140116666Y-55450000D02*
X140050000Y-55416666D01*
X139950000Y-55416666D01*
X139850000Y-55450000D01*
X139783333Y-55516666D01*
X139750000Y-55583333D01*
X139716666Y-55716666D01*
X139716666Y-55816666D01*
X139750000Y-55950000D01*
X139783333Y-56016666D01*
X139850000Y-56083333D01*
X139950000Y-56116666D01*
X140016666Y-56116666D01*
X140116666Y-56083333D01*
X140150000Y-56050000D01*
X140150000Y-55816666D01*
X140016666Y-55816666D01*
X140450000Y-56116666D02*
X140450000Y-55416666D01*
X140850000Y-56116666D01*
X140850000Y-55416666D01*
X141183333Y-56116666D02*
X141183333Y-55416666D01*
X141350000Y-55416666D01*
X141450000Y-55450000D01*
X141516666Y-55516666D01*
X141550000Y-55583333D01*
X141583333Y-55716666D01*
X141583333Y-55816666D01*
X141550000Y-55950000D01*
X141516666Y-56016666D01*
X141450000Y-56083333D01*
X141350000Y-56116666D01*
X141183333Y-56116666D01*
X135978571Y-51804761D02*
X135978571Y-53423809D01*
X136073809Y-53614285D01*
X136169047Y-53709523D01*
X136359523Y-53804761D01*
X136740476Y-53804761D01*
X136930952Y-53709523D01*
X137026190Y-53614285D01*
X137121428Y-53423809D01*
X137121428Y-51804761D01*
X138073809Y-53804761D02*
X138073809Y-51804761D01*
X138835714Y-51804761D01*
X139026190Y-51900000D01*
X139121428Y-51995238D01*
X139216666Y-52185714D01*
X139216666Y-52471428D01*
X139121428Y-52661904D01*
X139026190Y-52757142D01*
X138835714Y-52852380D01*
X138073809Y-52852380D01*
X122745238Y-76054761D02*
X121792857Y-76054761D01*
X121792857Y-74054761D01*
X123411904Y-75007142D02*
X124078571Y-75007142D01*
X124364285Y-76054761D02*
X123411904Y-76054761D01*
X123411904Y-74054761D01*
X124364285Y-74054761D01*
X125888095Y-75007142D02*
X125221428Y-75007142D01*
X125221428Y-76054761D02*
X125221428Y-74054761D01*
X126173809Y-74054761D01*
X126650000Y-74054761D02*
X127792857Y-74054761D01*
X127221428Y-76054761D02*
X127221428Y-74054761D01*
X129466666Y-56166666D02*
X129466666Y-55466666D01*
X129800000Y-56166666D02*
X129800000Y-55466666D01*
X130200000Y-56166666D01*
X130200000Y-55466666D01*
X130433333Y-55466666D02*
X130833333Y-55466666D01*
X130633333Y-56166666D02*
X130633333Y-55466666D01*
X111033333Y-57716666D02*
X111033333Y-57016666D01*
X111200000Y-57016666D01*
X111300000Y-57050000D01*
X111366666Y-57116666D01*
X111400000Y-57183333D01*
X111433333Y-57316666D01*
X111433333Y-57416666D01*
X111400000Y-57550000D01*
X111366666Y-57616666D01*
X111300000Y-57683333D01*
X111200000Y-57716666D01*
X111033333Y-57716666D01*
X112100000Y-57716666D02*
X111700000Y-57716666D01*
X111900000Y-57716666D02*
X111900000Y-57016666D01*
X111833333Y-57116666D01*
X111766666Y-57183333D01*
X111700000Y-57216666D01*
X134038095Y-93004761D02*
X134038095Y-91004761D01*
X134514285Y-91004761D01*
X134800000Y-91100000D01*
X134990476Y-91290476D01*
X135085714Y-91480952D01*
X135180952Y-91861904D01*
X135180952Y-92147619D01*
X135085714Y-92528571D01*
X134990476Y-92719047D01*
X134800000Y-92909523D01*
X134514285Y-93004761D01*
X134038095Y-93004761D01*
X136419047Y-91004761D02*
X136800000Y-91004761D01*
X136990476Y-91100000D01*
X137180952Y-91290476D01*
X137276190Y-91671428D01*
X137276190Y-92338095D01*
X137180952Y-92719047D01*
X136990476Y-92909523D01*
X136800000Y-93004761D01*
X136419047Y-93004761D01*
X136228571Y-92909523D01*
X136038095Y-92719047D01*
X135942857Y-92338095D01*
X135942857Y-91671428D01*
X136038095Y-91290476D01*
X136228571Y-91100000D01*
X136419047Y-91004761D01*
X137942857Y-91004761D02*
X138419047Y-93004761D01*
X138800000Y-91576190D01*
X139180952Y-93004761D01*
X139657142Y-91004761D01*
X140419047Y-93004761D02*
X140419047Y-91004761D01*
X141561904Y-93004761D01*
X141561904Y-91004761D01*
%TO.C,R4*%
X123933333Y-67502380D02*
X123600000Y-67026190D01*
X123361904Y-67502380D02*
X123361904Y-66502380D01*
X123742857Y-66502380D01*
X123838095Y-66550000D01*
X123885714Y-66597619D01*
X123933333Y-66692857D01*
X123933333Y-66835714D01*
X123885714Y-66930952D01*
X123838095Y-66978571D01*
X123742857Y-67026190D01*
X123361904Y-67026190D01*
X124790476Y-66835714D02*
X124790476Y-67502380D01*
X124552380Y-66454761D02*
X124314285Y-67169047D01*
X124933333Y-67169047D01*
%TO.C,R3*%
X147883333Y-67252380D02*
X147550000Y-66776190D01*
X147311904Y-67252380D02*
X147311904Y-66252380D01*
X147692857Y-66252380D01*
X147788095Y-66300000D01*
X147835714Y-66347619D01*
X147883333Y-66442857D01*
X147883333Y-66585714D01*
X147835714Y-66680952D01*
X147788095Y-66728571D01*
X147692857Y-66776190D01*
X147311904Y-66776190D01*
X148216666Y-66252380D02*
X148835714Y-66252380D01*
X148502380Y-66633333D01*
X148645238Y-66633333D01*
X148740476Y-66680952D01*
X148788095Y-66728571D01*
X148835714Y-66823809D01*
X148835714Y-67061904D01*
X148788095Y-67157142D01*
X148740476Y-67204761D01*
X148645238Y-67252380D01*
X148359523Y-67252380D01*
X148264285Y-67204761D01*
X148216666Y-67157142D01*
%TO.C,R2*%
X132900833Y-88402380D02*
X132567500Y-87926190D01*
X132329404Y-88402380D02*
X132329404Y-87402380D01*
X132710357Y-87402380D01*
X132805595Y-87450000D01*
X132853214Y-87497619D01*
X132900833Y-87592857D01*
X132900833Y-87735714D01*
X132853214Y-87830952D01*
X132805595Y-87878571D01*
X132710357Y-87926190D01*
X132329404Y-87926190D01*
X133281785Y-87497619D02*
X133329404Y-87450000D01*
X133424642Y-87402380D01*
X133662738Y-87402380D01*
X133757976Y-87450000D01*
X133805595Y-87497619D01*
X133853214Y-87592857D01*
X133853214Y-87688095D01*
X133805595Y-87830952D01*
X133234166Y-88402380D01*
X133853214Y-88402380D01*
%TO.C,R1*%
X131183333Y-49252380D02*
X130850000Y-48776190D01*
X130611904Y-49252380D02*
X130611904Y-48252380D01*
X130992857Y-48252380D01*
X131088095Y-48300000D01*
X131135714Y-48347619D01*
X131183333Y-48442857D01*
X131183333Y-48585714D01*
X131135714Y-48680952D01*
X131088095Y-48728571D01*
X130992857Y-48776190D01*
X130611904Y-48776190D01*
X132135714Y-49252380D02*
X131564285Y-49252380D01*
X131850000Y-49252380D02*
X131850000Y-48252380D01*
X131754761Y-48395238D01*
X131659523Y-48490476D01*
X131564285Y-48538095D01*
%TO.C,J2*%
X85766666Y-50802380D02*
X85766666Y-51516666D01*
X85719047Y-51659523D01*
X85623809Y-51754761D01*
X85480952Y-51802380D01*
X85385714Y-51802380D01*
X86195238Y-50897619D02*
X86242857Y-50850000D01*
X86338095Y-50802380D01*
X86576190Y-50802380D01*
X86671428Y-50850000D01*
X86719047Y-50897619D01*
X86766666Y-50992857D01*
X86766666Y-51088095D01*
X86719047Y-51230952D01*
X86147619Y-51802380D01*
X86766666Y-51802380D01*
%TO.C,D2*%
X137411904Y-88302380D02*
X137411904Y-87302380D01*
X137650000Y-87302380D01*
X137792857Y-87350000D01*
X137888095Y-87445238D01*
X137935714Y-87540476D01*
X137983333Y-87730952D01*
X137983333Y-87873809D01*
X137935714Y-88064285D01*
X137888095Y-88159523D01*
X137792857Y-88254761D01*
X137650000Y-88302380D01*
X137411904Y-88302380D01*
X138364285Y-87397619D02*
X138411904Y-87350000D01*
X138507142Y-87302380D01*
X138745238Y-87302380D01*
X138840476Y-87350000D01*
X138888095Y-87397619D01*
X138935714Y-87492857D01*
X138935714Y-87588095D01*
X138888095Y-87730952D01*
X138316666Y-88302380D01*
X138935714Y-88302380D01*
%TO.C,D1*%
X136861904Y-48902380D02*
X136861904Y-47902380D01*
X137100000Y-47902380D01*
X137242857Y-47950000D01*
X137338095Y-48045238D01*
X137385714Y-48140476D01*
X137433333Y-48330952D01*
X137433333Y-48473809D01*
X137385714Y-48664285D01*
X137338095Y-48759523D01*
X137242857Y-48854761D01*
X137100000Y-48902380D01*
X136861904Y-48902380D01*
X138385714Y-48902380D02*
X137814285Y-48902380D01*
X138100000Y-48902380D02*
X138100000Y-47902380D01*
X138004761Y-48045238D01*
X137909523Y-48140476D01*
X137814285Y-48188095D01*
%TO.C,J3*%
X108616666Y-50782380D02*
X108616666Y-51496666D01*
X108569047Y-51639523D01*
X108473809Y-51734761D01*
X108330952Y-51782380D01*
X108235714Y-51782380D01*
X108997619Y-50782380D02*
X109616666Y-50782380D01*
X109283333Y-51163333D01*
X109426190Y-51163333D01*
X109521428Y-51210952D01*
X109569047Y-51258571D01*
X109616666Y-51353809D01*
X109616666Y-51591904D01*
X109569047Y-51687142D01*
X109521428Y-51734761D01*
X109426190Y-51782380D01*
X109140476Y-51782380D01*
X109045238Y-51734761D01*
X108997619Y-51687142D01*
%TO.C,D3*%
X148011904Y-71102380D02*
X148011904Y-70102380D01*
X148250000Y-70102380D01*
X148392857Y-70150000D01*
X148488095Y-70245238D01*
X148535714Y-70340476D01*
X148583333Y-70530952D01*
X148583333Y-70673809D01*
X148535714Y-70864285D01*
X148488095Y-70959523D01*
X148392857Y-71054761D01*
X148250000Y-71102380D01*
X148011904Y-71102380D01*
X148916666Y-70102380D02*
X149535714Y-70102380D01*
X149202380Y-70483333D01*
X149345238Y-70483333D01*
X149440476Y-70530952D01*
X149488095Y-70578571D01*
X149535714Y-70673809D01*
X149535714Y-70911904D01*
X149488095Y-71007142D01*
X149440476Y-71054761D01*
X149345238Y-71102380D01*
X149059523Y-71102380D01*
X148964285Y-71054761D01*
X148916666Y-71007142D01*
%TO.C,D4*%
X124211904Y-71452380D02*
X124211904Y-70452380D01*
X124450000Y-70452380D01*
X124592857Y-70500000D01*
X124688095Y-70595238D01*
X124735714Y-70690476D01*
X124783333Y-70880952D01*
X124783333Y-71023809D01*
X124735714Y-71214285D01*
X124688095Y-71309523D01*
X124592857Y-71404761D01*
X124450000Y-71452380D01*
X124211904Y-71452380D01*
X125640476Y-70785714D02*
X125640476Y-71452380D01*
X125402380Y-70404761D02*
X125164285Y-71119047D01*
X125783333Y-71119047D01*
D11*
%TO.C,R4*%
X123872936Y-67965000D02*
X124327064Y-67965000D01*
X123872936Y-69435000D02*
X124327064Y-69435000D01*
%TO.C,R3*%
X147822936Y-67715000D02*
X148277064Y-67715000D01*
X147822936Y-69185000D02*
X148277064Y-69185000D01*
%TO.C,R2*%
X132840436Y-88865000D02*
X133294564Y-88865000D01*
X132840436Y-90335000D02*
X133294564Y-90335000D01*
%TO.C,R1*%
X131122936Y-49715000D02*
X131577064Y-49715000D01*
X131122936Y-51185000D02*
X131577064Y-51185000D01*
%TO.C,J1*%
X141855000Y-59555000D02*
X129095000Y-59555000D01*
X129095000Y-56895000D02*
X129095000Y-59555000D01*
X141855000Y-56895000D02*
X129095000Y-56895000D01*
X144455000Y-59555000D02*
X143125000Y-59555000D01*
X141855000Y-56895000D02*
X141855000Y-59555000D01*
X144455000Y-58225000D02*
X144455000Y-59555000D01*
%TO.C,J2*%
X84770000Y-55390000D02*
X87430000Y-55390000D01*
X86100000Y-52790000D02*
X87430000Y-52790000D01*
X87430000Y-52790000D02*
X87430000Y-54120000D01*
X84770000Y-91010000D02*
X87430000Y-91010000D01*
X84770000Y-55390000D02*
X84770000Y-91010000D01*
X87430000Y-55390000D02*
X87430000Y-91010000D01*
%TO.C,D2*%
X136290000Y-90460000D02*
X139150000Y-90460000D01*
X136290000Y-88540000D02*
X136290000Y-90460000D01*
X139150000Y-88540000D02*
X136290000Y-88540000D01*
%TO.C,D1*%
X135740000Y-51060000D02*
X138600000Y-51060000D01*
X138600000Y-49140000D02*
X135740000Y-49140000D01*
X135740000Y-49140000D02*
X135740000Y-51060000D01*
%TO.C,J3*%
X107620000Y-55370000D02*
X107620000Y-90990000D01*
X107620000Y-90990000D02*
X110280000Y-90990000D01*
X110280000Y-55370000D02*
X110280000Y-90990000D01*
X108950000Y-52770000D02*
X110280000Y-52770000D01*
X110280000Y-52770000D02*
X110280000Y-54100000D01*
X107620000Y-55370000D02*
X110280000Y-55370000D01*
%TO.C,D3*%
X146040000Y-71340000D02*
X146040000Y-73260000D01*
X148900000Y-71340000D02*
X146040000Y-71340000D01*
X146040000Y-73260000D02*
X148900000Y-73260000D01*
%TO.C,D4*%
X123090000Y-73610000D02*
X125950000Y-73610000D01*
X125950000Y-71690000D02*
X123090000Y-71690000D01*
X123090000Y-71690000D02*
X123090000Y-73610000D01*
%TD*%
M02*
